<svg width="380" height="362" viewBox="0 0 380 362" fill="none" xmlns="http://www.w3.org/2000/svg">
<path d="M194.987 325.749C205.757 301.925 237.055 318.466 255.077 289.79C273.1 261.114 307.632 239.424 332.219 247.192L335.701 244.463C335.701 244.463 297.08 230.031 255.778 280.781C236.152 304.898 199.202 287.005 181.802 315.962L194.987 325.749Z" fill="#685048"/>
<mask id="mask0_0_2132" style="mask-type:luminance" maskUnits="userSpaceOnUse" x="181" y="242" width="155" height="84">
<path fill-rule="evenodd" clip-rule="evenodd" d="M194.987 325.749C205.757 301.925 237.055 318.466 255.077 289.79C273.1 261.114 307.632 239.424 332.219 247.192L335.701 244.463C335.701 244.463 297.08 230.031 255.778 280.781C236.152 304.898 199.202 287.005 181.802 315.962L194.987 325.749Z" fill="white"/>
</mask>
<g mask="url(#mask0_0_2132)">
<path d="M212.303 301.354C201.941 304.908 198.874 295.332 198.874 295.332L216.326 292.668" fill="#3A2921"/>
<path d="M254.173 304.978C231.156 301.02 245.274 289.55 245.274 289.55L260.317 277.501L268.615 273.036L273.957 282.506" fill="#3A2921"/>
<path d="M332.092 240.266C308.18 239.771 313.464 250.256 313.464 250.256L325.628 251.803" fill="#3A2921"/>
</g>
<path d="M281.546 258.284C282.314 246.948 285.023 227.124 286.708 222.313C292.826 204.843 317.255 206.952 329.198 187.164C341.141 167.377 354.375 163.795 354.375 163.795L351.575 162.53C330.397 170.702 339.457 178.837 317.759 193.683C296.062 208.529 284.352 206.529 280.761 225.522C277.169 244.516 275.139 260.684 274.081 264.436C273.023 268.187 281.546 258.284 281.546 258.284Z" fill="#685048"/>
<mask id="mask1_0_2132" style="mask-type:luminance" maskUnits="userSpaceOnUse" x="273" y="162" width="82" height="104">
<path fill-rule="evenodd" clip-rule="evenodd" d="M281.546 258.284C282.314 246.948 285.023 227.124 286.708 222.313C292.826 204.843 317.255 206.952 329.198 187.164C341.141 167.377 354.375 163.795 354.375 163.795L351.575 162.53C330.397 170.702 339.457 178.837 317.759 193.683C296.062 208.529 284.352 206.529 280.761 225.522C277.169 244.516 275.139 260.684 274.081 264.436C273.023 268.187 281.546 258.284 281.546 258.284Z" fill="white"/>
</mask>
<g mask="url(#mask1_0_2132)">
<path d="M289.833 226.104C283.867 211.801 278.376 243.988 280.313 247.161C282.25 250.333 288.54 242.816 288.54 242.816" fill="#3A2921"/>
<path d="M347.335 174.8C336.148 170.458 348.073 154.295 348.073 154.295L362.099 166.256" fill="#3A2921"/>
<path d="M318.02 202.496C306.508 183.135 300.051 206.356 300.051 206.356C300.051 206.356 278.53 198.996 287.338 208.518C296.146 218.04 300.768 217.902 300.768 217.902" fill="#3A2921"/>
</g>
<path d="M357.137 179.232C345.47 188.463 329.198 187.164 329.198 187.164L327.023 190.359C337.873 188.695 349.383 188.097 356.479 180.687L357.137 179.232Z" fill="#685048"/>
<path d="M309.743 210.738C298.076 219.97 290.007 213.445 290.007 213.445L287.832 216.64C291.739 218.642 301.989 219.603 309.085 212.194L309.743 210.738Z" fill="#685048"/>
<path d="M225.069 299.815C224.234 272.657 241.201 262.474 236.587 222.13L232.567 221.907C236.703 263.31 209.587 297.598 212.506 302.744C215.424 307.889 225.069 299.815 225.069 299.815Z" fill="#685048"/>
<mask id="mask2_0_2132" style="mask-type:luminance" maskUnits="userSpaceOnUse" x="212" y="221" width="26" height="84">
<path fill-rule="evenodd" clip-rule="evenodd" d="M225.069 299.815C224.234 272.657 241.201 262.474 236.587 222.13L232.567 221.907C236.703 263.31 209.587 297.598 212.506 302.744C215.424 307.889 225.069 299.815 225.069 299.815Z" fill="white"/>
</mask>
<g mask="url(#mask2_0_2132)">
<path d="M244.974 232.108C227.759 232.929 232.417 216.439 232.417 216.439L248.382 220.832" fill="#3A2921"/>
</g>
<path d="M233.714 246.993C211.014 232.567 214.206 219.982 214.206 219.982L211.079 220.269C211.079 220.269 211.317 236.868 231.846 251.125L233.714 246.993Z" fill="#685048"/>
<path d="M305.071 226.17C308.188 227.579 311.62 226.948 313.479 224.835C314.057 225.307 314.694 225.701 315.374 226.008C319.077 227.682 323.233 226.485 324.657 223.334C325.66 221.117 325.036 218.526 323.292 216.6C324.425 216.029 325.331 215.091 325.861 213.938C327.286 210.787 325.439 206.876 321.737 205.203C320.526 204.65 319.201 204.397 317.872 204.465C317.733 201.995 316.016 199.537 313.28 198.3C309.578 196.627 305.422 197.824 303.998 200.974C303.3 202.519 303.391 204.245 304.098 205.801C300.69 204.762 297.153 206.004 295.861 208.861C294.437 212.012 296.283 215.923 299.986 217.597C300.245 217.714 300.506 217.813 300.768 217.902C299.714 220.963 301.55 224.578 305.071 226.17Z" fill="#EF6876"/>
<mask id="mask3_0_2132" style="mask-type:luminance" maskUnits="userSpaceOnUse" x="295" y="197" width="32" height="30">
<path fill-rule="evenodd" clip-rule="evenodd" d="M305.071 226.17C308.188 227.579 311.62 226.948 313.479 224.835C314.057 225.307 314.694 225.701 315.374 226.008C319.077 227.682 323.233 226.485 324.657 223.334C325.66 221.117 325.036 218.526 323.292 216.6C324.425 216.029 325.331 215.091 325.861 213.938C327.286 210.787 325.439 206.876 321.737 205.203C320.526 204.65 319.201 204.397 317.872 204.465C317.733 201.995 316.016 199.537 313.28 198.3C309.578 196.627 305.422 197.824 303.998 200.974C303.3 202.519 303.391 204.245 304.098 205.801C300.69 204.762 297.153 206.004 295.861 208.861C294.437 212.012 296.283 215.923 299.986 217.597C300.245 217.714 300.506 217.813 300.768 217.902C299.714 220.963 301.55 224.578 305.071 226.17Z" fill="white"/>
</mask>
<g mask="url(#mask3_0_2132)">
<path d="M314.49 226.093C313.307 225.727 313.479 224.835 313.479 224.835L311.894 222.625C311.894 222.625 308.802 221.744 312.238 226.953" fill="#C83C4F"/>
<path d="M307.703 214.934C301.363 213.813 304.98 207.821 308.886 210.633V210.633C308.886 210.633 307.344 206.541 310.355 207.76C313.367 208.979 312.546 211.04 312.546 211.04" fill="#C83C4F"/>
<path d="M318.928 203.514L317.872 204.465C317.872 204.465 315.727 204.648 315.029 205.547C314.33 206.447 314.448 201.714 318.02 202.496" fill="#C83C4F"/>
</g>
<path d="M309.232 217.872C310.339 218.372 311.559 218.148 312.219 217.397C312.425 217.565 312.651 217.705 312.893 217.814C314.208 218.409 315.685 217.984 316.191 216.864C316.548 216.076 316.326 215.155 315.706 214.471C316.109 214.268 316.431 213.935 316.619 213.525C317.126 212.405 316.469 211.016 315.154 210.421C314.724 210.224 314.252 210.135 313.78 210.159C313.731 209.281 313.121 208.408 312.149 207.968C310.833 207.373 309.356 207.799 308.85 208.918C308.612 209.468 308.625 210.094 308.886 210.633C307.674 210.264 306.417 210.706 305.959 211.721C305.452 212.84 306.109 214.23 307.424 214.825C307.516 214.867 307.609 214.902 307.702 214.934C307.328 216.021 307.98 217.306 309.232 217.872Z" fill="#F8B32D"/>
<path d="M320.871 219.729L320.799 218.007C320.795 217.78 320.705 217.564 320.548 217.4C320.302 217.155 319.933 217.082 319.613 217.215C319.292 217.347 319.083 217.66 319.083 218.007L319.156 219.729C319.16 219.955 319.25 220.172 319.407 220.335C319.652 220.58 320.021 220.654 320.342 220.521C320.662 220.388 320.871 220.075 320.871 219.729V219.729Z" fill="#C83C4F"/>
<path d="M302.505 211.426L302.433 209.704C302.429 209.477 302.339 209.261 302.182 209.097C301.937 208.852 301.568 208.779 301.247 208.911C300.927 209.044 300.718 209.357 300.718 209.704L300.79 211.426C300.794 211.652 300.884 211.869 301.041 212.032C301.287 212.277 301.655 212.351 301.976 212.218C302.297 212.085 302.505 211.772 302.505 211.426V211.426Z" fill="#C83C4F"/>
<path d="M250.36 298.123C253.477 299.533 256.908 298.901 258.768 296.788C259.345 297.26 259.982 297.655 260.663 297.961C264.365 299.635 268.521 298.438 269.945 295.287C270.948 293.07 270.325 290.479 268.58 288.553C269.714 287.983 270.62 287.044 271.15 285.891C272.574 282.741 270.727 278.83 267.025 277.156C265.815 276.603 264.489 276.351 263.16 276.418C263.022 273.948 261.304 271.49 258.569 270.254C254.866 268.58 250.71 269.777 249.286 272.928C248.588 274.472 248.68 276.198 249.386 277.754C245.978 276.715 242.441 277.958 241.149 280.814C239.725 283.965 241.572 287.876 245.274 289.55C245.533 289.667 245.794 289.766 246.056 289.856C245.002 292.916 246.838 296.531 250.36 298.123Z" fill="#EF6876"/>
<mask id="mask4_0_2132" style="mask-type:luminance" maskUnits="userSpaceOnUse" x="240" y="269" width="32" height="30">
<path fill-rule="evenodd" clip-rule="evenodd" d="M250.36 298.123C253.477 299.532 256.908 298.901 258.768 296.788C259.345 297.26 259.982 297.655 260.663 297.961C264.365 299.635 268.521 298.438 269.945 295.287C270.948 293.07 270.325 290.479 268.58 288.553C269.714 287.983 270.62 287.044 271.15 285.891C272.574 282.741 270.727 278.83 267.025 277.156C265.815 276.603 264.489 276.351 263.16 276.418C263.022 273.948 261.304 271.49 258.569 270.254C254.866 268.58 250.71 269.777 249.286 272.928C248.588 274.472 248.68 276.198 249.386 277.754C245.978 276.715 242.441 277.958 241.149 280.814C239.725 283.965 241.572 287.876 245.274 289.55C245.533 289.667 245.794 289.766 246.056 289.856C245.002 292.916 246.838 296.531 250.36 298.123Z" fill="white"/>
</mask>
<g mask="url(#mask4_0_2132)">
<path d="M259.779 298.046C258.596 297.68 258.768 296.788 258.768 296.788L257.183 294.578C257.183 294.578 254.091 293.698 257.526 298.907" fill="#C83C4F"/>
<path d="M252.991 286.887C246.651 285.767 250.268 279.774 254.174 282.587V282.587C254.174 282.587 252.632 278.494 255.644 279.713C258.655 280.932 257.834 282.993 257.834 282.993" fill="#C83C4F"/>
<path d="M264.217 275.467L263.16 276.418C263.16 276.418 261.016 276.601 260.317 277.501C259.619 278.4 259.736 273.667 263.309 274.449" fill="#C83C4F"/>
</g>
<path d="M254.52 289.825C255.628 290.326 256.847 290.101 257.508 289.351C257.713 289.518 257.94 289.658 258.181 289.767C259.497 290.362 260.974 289.937 261.48 288.817C261.836 288.029 261.615 287.108 260.995 286.424C261.398 286.221 261.72 285.888 261.908 285.478C262.414 284.359 261.758 282.969 260.442 282.374C260.012 282.178 259.541 282.088 259.069 282.112C259.02 281.234 258.409 280.361 257.437 279.921C256.122 279.327 254.645 279.752 254.139 280.872C253.9 281.421 253.913 282.047 254.174 282.587C252.963 282.217 251.706 282.659 251.247 283.674C250.741 284.794 251.397 286.184 252.713 286.778C252.805 286.82 252.898 286.855 252.991 286.887C252.616 287.975 253.269 289.259 254.52 289.825Z" fill="#F8B32D"/>
<path d="M266.16 291.682L266.087 289.96C266.083 289.734 265.993 289.517 265.836 289.354C265.591 289.108 265.222 289.035 264.901 289.168C264.581 289.301 264.372 289.613 264.372 289.96L264.444 291.682C264.448 291.908 264.538 292.125 264.695 292.288C264.941 292.534 265.31 292.607 265.63 292.474C265.951 292.342 266.16 292.029 266.16 291.682V291.682Z" fill="#C83C4F"/>
<path d="M247.794 283.379L247.722 281.657C247.717 281.431 247.628 281.214 247.471 281.051C247.225 280.805 246.856 280.732 246.536 280.865C246.215 280.997 246.006 281.31 246.006 281.657L246.079 283.379C246.083 283.605 246.173 283.822 246.33 283.985C246.575 284.231 246.944 284.304 247.265 284.171C247.585 284.038 247.794 283.726 247.794 283.379V283.379Z" fill="#C83C4F"/>
<path d="M278.317 150.354C280.1 151.16 282.063 150.798 283.127 149.59C283.457 149.86 283.822 150.085 284.211 150.261C286.329 151.218 288.707 150.534 289.522 148.731C290.095 147.462 289.739 145.98 288.741 144.878C289.389 144.552 289.907 144.015 290.211 143.356C291.025 141.553 289.969 139.316 287.851 138.358C287.158 138.042 286.4 137.897 285.64 137.936C285.561 136.523 284.578 135.117 283.013 134.409C280.895 133.452 278.517 134.136 277.702 135.939C277.303 136.822 277.355 137.81 277.76 138.7C275.81 138.106 273.786 138.817 273.047 140.451C272.232 142.253 273.289 144.491 275.407 145.449C275.555 145.516 275.705 145.572 275.855 145.624C275.252 147.375 276.302 149.443 278.317 150.354Z" fill="#EF6876"/>
<mask id="mask5_0_2132" style="mask-type:luminance" maskUnits="userSpaceOnUse" x="272" y="133" width="19" height="18">
<path fill-rule="evenodd" clip-rule="evenodd" d="M278.317 150.354C280.1 151.16 282.063 150.798 283.127 149.59C283.458 149.86 283.822 150.085 284.211 150.261C286.329 151.218 288.707 150.534 289.522 148.731C290.095 147.462 289.739 145.98 288.741 144.878C289.389 144.552 289.908 144.015 290.211 143.356C291.026 141.553 289.969 139.316 287.851 138.358C287.159 138.042 286.4 137.897 285.64 137.936C285.561 136.523 284.578 135.117 283.013 134.409C280.895 133.452 278.517 134.136 277.703 135.939C277.303 136.822 277.356 137.81 277.76 138.7C275.81 138.106 273.786 138.817 273.048 140.451C272.233 142.253 273.289 144.491 275.407 145.449C275.555 145.516 275.705 145.572 275.855 145.624C275.252 147.375 276.302 149.443 278.317 150.354Z" fill="white"/>
</mask>
<g mask="url(#mask5_0_2132)">
<path d="M283.706 150.31C283.029 150.1 283.127 149.59 283.127 149.59L282.22 148.325C282.22 148.325 280.451 147.822 282.417 150.802" fill="#C83C4F"/>
<path d="M279.822 143.925C276.195 143.284 278.264 139.856 280.499 141.465V141.465C280.499 141.465 279.617 139.124 281.34 139.821C283.063 140.519 282.593 141.697 282.593 141.697" fill="#C83C4F"/>
<path d="M286.245 137.392L285.64 137.936C285.64 137.936 284.413 138.041 284.014 138.555C283.614 139.07 283.681 136.362 285.725 136.809" fill="#C83C4F"/>
</g>
<path d="M280.697 145.606C281.331 145.893 282.028 145.764 282.406 145.335C282.524 145.431 282.653 145.511 282.791 145.573C283.544 145.913 284.389 145.67 284.679 145.03C284.882 144.579 284.756 144.052 284.401 143.66C284.632 143.544 284.816 143.354 284.923 143.119C285.213 142.479 284.838 141.684 284.085 141.343C283.839 141.231 283.569 141.18 283.299 141.193C283.271 140.691 282.922 140.191 282.366 139.94C281.613 139.6 280.768 139.843 280.479 140.484C280.342 140.798 280.35 141.156 280.499 141.465C279.806 141.254 279.087 141.506 278.824 142.087C278.535 142.728 278.91 143.523 279.663 143.863C279.716 143.887 279.769 143.907 279.822 143.925C279.608 144.547 279.981 145.282 280.697 145.606Z" fill="#F8B32D"/>
<path d="M287.356 146.668L287.314 145.683C287.312 145.554 287.261 145.43 287.171 145.336C287.03 145.196 286.819 145.154 286.636 145.23C286.453 145.306 286.333 145.485 286.333 145.683L286.374 146.668C286.377 146.798 286.428 146.922 286.518 147.015C286.658 147.156 286.869 147.198 287.053 147.122C287.236 147.046 287.356 146.867 287.356 146.668V146.668Z" fill="#C83C4F"/>
<path d="M276.849 141.918L276.808 140.933C276.805 140.804 276.754 140.68 276.664 140.586C276.524 140.446 276.312 140.404 276.129 140.48C275.946 140.556 275.826 140.735 275.826 140.933L275.868 141.918C275.87 142.048 275.921 142.172 276.011 142.265C276.152 142.406 276.363 142.447 276.546 142.372C276.729 142.296 276.849 142.117 276.849 141.918V141.918Z" fill="#C83C4F"/>
<path d="M295.052 304.288C296.835 305.094 298.798 304.732 299.862 303.524C300.193 303.794 300.557 304.019 300.946 304.195C303.064 305.152 305.442 304.467 306.257 302.665C306.831 301.396 306.474 299.914 305.476 298.812C306.124 298.486 306.643 297.949 306.946 297.289C307.761 295.487 306.704 293.249 304.586 292.292C303.894 291.976 303.135 291.831 302.375 291.87C302.296 290.457 301.313 289.051 299.748 288.343C297.63 287.386 295.253 288.07 294.438 289.873C294.038 290.756 294.091 291.744 294.495 292.634C292.545 292.04 290.522 292.751 289.783 294.385C288.968 296.187 290.024 298.425 292.142 299.383C292.291 299.449 292.44 299.506 292.59 299.557C291.987 301.309 293.037 303.377 295.052 304.288Z" fill="#EF6876"/>
<mask id="mask6_0_2132" style="mask-type:luminance" maskUnits="userSpaceOnUse" x="289" y="287" width="19" height="18">
<path fill-rule="evenodd" clip-rule="evenodd" d="M295.052 304.288C296.835 305.094 298.798 304.732 299.862 303.524C300.193 303.794 300.557 304.019 300.946 304.195C303.064 305.152 305.442 304.467 306.257 302.665C306.831 301.396 306.474 299.914 305.476 298.812C306.124 298.486 306.643 297.949 306.946 297.289C307.761 295.487 306.704 293.249 304.586 292.292C303.894 291.976 303.135 291.831 302.375 291.87C302.296 290.457 301.313 289.051 299.748 288.343C297.63 287.386 295.253 288.07 294.438 289.873C294.038 290.756 294.091 291.744 294.495 292.634C292.545 292.04 290.522 292.751 289.783 294.385C288.968 296.187 290.024 298.425 292.142 299.383C292.291 299.449 292.44 299.506 292.59 299.557C291.987 301.309 293.037 303.377 295.052 304.288Z" fill="white"/>
</mask>
<g mask="url(#mask6_0_2132)">
<path d="M300.441 304.244C299.764 304.034 299.862 303.524 299.862 303.524L298.955 302.259C298.955 302.259 297.187 301.755 299.152 304.736" fill="#C83C4F"/>
<path d="M296.557 297.859C292.93 297.218 295 293.79 297.234 295.399V295.399C297.234 295.399 296.352 293.058 298.075 293.755C299.798 294.452 299.328 295.631 299.328 295.631" fill="#C83C4F"/>
<path d="M302.98 291.326L302.375 291.87C302.375 291.87 301.148 291.975 300.749 292.489C300.349 293.004 300.416 290.296 302.46 290.743" fill="#C83C4F"/>
</g>
<path d="M297.432 299.54C298.066 299.826 298.764 299.698 299.142 299.269C299.259 299.365 299.389 299.445 299.527 299.507C300.279 299.847 301.124 299.604 301.414 298.963C301.618 298.513 301.491 297.986 301.136 297.594C301.367 297.478 301.551 297.288 301.659 297.053C301.948 296.413 301.573 295.617 300.82 295.277C300.574 295.165 300.305 295.113 300.035 295.127C300.006 294.625 299.657 294.125 299.101 293.874C298.348 293.534 297.503 293.777 297.214 294.418C297.078 294.732 297.085 295.09 297.234 295.399C296.541 295.188 295.822 295.44 295.56 296.021C295.27 296.662 295.646 297.457 296.398 297.797C296.451 297.821 296.504 297.841 296.557 297.859C296.343 298.481 296.716 299.216 297.432 299.54Z" fill="#F8B32D"/>
<path d="M304.091 300.602L304.05 299.617C304.047 299.488 303.996 299.364 303.906 299.27C303.766 299.13 303.555 299.088 303.371 299.164C303.188 299.24 303.068 299.419 303.068 299.617L303.11 300.602C303.112 300.732 303.164 300.856 303.253 300.949C303.394 301.09 303.605 301.132 303.788 301.056C303.972 300.98 304.091 300.801 304.091 300.602V300.602Z" fill="#C83C4F"/>
<path d="M293.584 295.852L293.543 294.867C293.54 294.738 293.489 294.614 293.399 294.52C293.259 294.38 293.048 294.338 292.864 294.414C292.681 294.49 292.561 294.669 292.561 294.867L292.603 295.852C292.605 295.982 292.656 296.106 292.746 296.199C292.887 296.339 293.098 296.381 293.281 296.305C293.464 296.229 293.584 296.051 293.584 295.852Z" fill="#C83C4F"/>
<path d="M352.968 187.885C354.232 188.457 355.625 188.201 356.38 187.343C356.614 187.535 356.873 187.695 357.149 187.82C358.651 188.499 360.338 188.013 360.916 186.734C361.322 185.834 361.07 184.783 360.361 184.002C360.821 183.77 361.189 183.389 361.404 182.921C361.982 181.643 361.233 180.056 359.73 179.376C359.239 179.152 358.701 179.05 358.162 179.077C358.106 178.075 357.409 177.077 356.299 176.575C354.796 175.896 353.11 176.382 352.532 177.661C352.26 178.288 352.275 179.003 352.572 179.619C351.189 179.198 349.754 179.702 349.23 180.861C348.652 182.14 349.401 183.727 350.904 184.406C351.009 184.454 351.115 184.494 351.221 184.53C350.793 185.772 351.538 187.239 352.968 187.885Z" fill="#EF6876"/>
<mask id="mask7_0_2132" style="mask-type:luminance" maskUnits="userSpaceOnUse" x="349" y="176" width="13" height="13">
<path fill-rule="evenodd" clip-rule="evenodd" d="M352.968 187.885C354.232 188.457 355.625 188.201 356.38 187.343C356.614 187.535 356.873 187.695 357.149 187.82C358.651 188.499 360.338 188.013 360.916 186.734C361.322 185.834 361.07 184.783 360.361 184.002C360.821 183.77 361.189 183.389 361.404 182.921C361.982 181.643 361.233 180.056 359.73 179.376C359.239 179.152 358.701 179.05 358.162 179.077C358.106 178.075 357.409 177.077 356.299 176.575C354.796 175.896 353.11 176.382 352.532 177.661C352.26 178.288 352.275 179.003 352.572 179.619C351.189 179.198 349.754 179.702 349.23 180.861C348.652 182.14 349.401 183.727 350.904 184.406C351.009 184.454 351.115 184.494 351.221 184.53C350.793 185.772 351.538 187.239 352.968 187.885Z" fill="white"/>
</mask>
<g mask="url(#mask7_0_2132)">
<path d="M356.79 187.854C356.31 187.706 356.38 187.343 356.38 187.343L355.736 186.447C355.736 186.447 354.482 186.089 355.876 188.203" fill="#C83C4F"/>
<path d="M354.035 183.325C351.462 182.871 352.93 180.439 354.515 181.58V181.58C354.515 181.58 353.89 179.92 355.112 180.414C356.334 180.909 356.001 181.745 356.001 181.745" fill="#C83C4F"/>
<path d="M358.591 178.691L358.162 179.077C358.162 179.077 357.292 179.151 357.008 179.516C356.725 179.881 356.772 177.961 358.222 178.278" fill="#C83C4F"/>
</g>
<path d="M354.656 184.518C355.105 184.721 355.6 184.63 355.868 184.325C355.951 184.393 356.043 184.45 356.141 184.494C356.675 184.736 357.275 184.563 357.48 184.109C357.615 183.775 357.537 183.393 357.283 183.138C357.447 183.055 357.577 182.92 357.654 182.754C357.859 182.299 357.593 181.735 357.059 181.494C356.884 181.414 356.693 181.378 356.502 181.388C356.461 180.992 356.207 180.651 355.839 180.499C355.306 180.257 354.706 180.43 354.501 180.884C354.404 181.107 354.409 181.361 354.515 181.58C354.024 181.43 353.514 181.61 353.327 182.022C353.122 182.476 353.388 183.04 353.922 183.281C353.96 183.298 353.997 183.313 354.035 183.325C353.883 183.767 354.148 184.288 354.656 184.518Z" fill="#F8B32D"/>
<path d="M359.379 185.271L359.35 184.573C359.348 184.481 359.312 184.393 359.248 184.326C359.148 184.227 358.999 184.197 358.869 184.251C358.739 184.305 358.654 184.432 358.654 184.573L358.683 185.271C358.685 185.363 358.721 185.451 358.785 185.517C358.885 185.617 359.034 185.647 359.164 185.593C359.294 185.539 359.379 185.412 359.379 185.271V185.271Z" fill="#C83C4F"/>
<path d="M351.926 181.902L351.897 181.203C351.895 181.111 351.859 181.023 351.795 180.957C351.695 180.857 351.546 180.828 351.416 180.882C351.285 180.935 351.201 181.062 351.201 181.203L351.23 181.902C351.232 181.994 351.268 182.082 351.332 182.148C351.432 182.247 351.581 182.277 351.711 182.223C351.841 182.169 351.926 182.043 351.926 181.902V181.902Z" fill="#C83C4F"/>
<path d="M330.089 259.325C332.824 260.561 335.834 260.007 337.466 258.154C337.973 258.568 338.531 258.914 339.128 259.183C342.376 260.651 346.022 259.601 347.272 256.837C348.151 254.891 347.605 252.618 346.074 250.929C347.068 250.428 347.863 249.605 348.328 248.594C349.578 245.83 347.958 242.399 344.71 240.93C343.648 240.445 342.485 240.224 341.319 240.283C341.198 238.116 339.691 235.96 337.291 234.875C334.043 233.406 330.397 234.456 329.147 237.221C328.535 238.575 328.615 240.089 329.235 241.455C326.245 240.543 323.142 241.633 322.009 244.14C320.759 246.904 322.38 250.335 325.628 251.803C325.855 251.906 326.084 251.993 326.314 252.072C325.389 254.757 327 257.928 330.089 259.325Z" fill="#EF6876"/>
<mask id="mask8_0_2132" style="mask-type:luminance" maskUnits="userSpaceOnUse" x="321" y="234" width="28" height="26">
<path fill-rule="evenodd" clip-rule="evenodd" d="M330.089 259.325C332.824 260.561 335.834 260.007 337.466 258.154C337.973 258.568 338.531 258.914 339.128 259.183C342.376 260.651 346.022 259.601 347.272 256.837C348.151 254.891 347.605 252.618 346.074 250.929C347.068 250.428 347.863 249.605 348.328 248.594C349.578 245.83 347.958 242.399 344.71 240.93C343.648 240.445 342.485 240.224 341.319 240.283C341.198 238.116 339.691 235.96 337.291 234.875C334.043 233.406 330.397 234.456 329.147 237.221C328.535 238.575 328.615 240.089 329.235 241.455C326.245 240.543 323.142 241.633 322.009 244.14C320.759 246.904 322.38 250.335 325.628 251.803C325.855 251.906 326.084 251.993 326.314 252.072C325.389 254.757 327 257.928 330.089 259.325Z" fill="white"/>
</mask>
<g mask="url(#mask8_0_2132)">
<path d="M338.353 259.257C337.315 258.936 337.466 258.153 337.466 258.153L336.075 256.214C336.075 256.214 333.362 255.442 336.376 260.012" fill="#C83C4F"/>
<path d="M332.397 249.467C326.836 248.484 330.009 243.227 333.436 245.695V245.695C333.436 245.695 332.083 242.104 334.725 243.174C337.367 244.243 336.646 246.051 336.646 246.051" fill="#C83C4F"/>
<path d="M342.246 239.448L341.319 240.283C341.319 240.283 339.438 240.444 338.825 241.233C338.212 242.021 338.315 237.869 341.449 238.555" fill="#C83C4F"/>
</g>
<path d="M333.739 252.045C334.711 252.484 335.781 252.287 336.36 251.629C336.54 251.776 336.739 251.899 336.951 251.994C338.105 252.516 339.401 252.143 339.845 251.161C340.158 250.469 339.963 249.662 339.419 249.061C339.773 248.883 340.055 248.591 340.22 248.231C340.665 247.249 340.089 246.03 338.935 245.508C338.557 245.336 338.144 245.257 337.73 245.278C337.687 244.508 337.151 243.742 336.298 243.356C335.144 242.834 333.848 243.208 333.404 244.19C333.195 244.672 333.207 245.221 333.436 245.695C332.373 245.371 331.27 245.758 330.868 246.649C330.424 247.631 330.999 248.85 332.154 249.372C332.234 249.408 332.316 249.439 332.398 249.467C332.069 250.421 332.641 251.548 333.739 252.045Z" fill="#F8B32D"/>
<path d="M343.95 253.674L343.887 252.163C343.883 251.965 343.805 251.775 343.667 251.631C343.451 251.416 343.128 251.352 342.847 251.468C342.565 251.585 342.382 251.859 342.382 252.163L342.445 253.674C342.449 253.873 342.528 254.063 342.666 254.206C342.881 254.421 343.205 254.485 343.486 254.369C343.767 254.253 343.95 253.978 343.95 253.674V253.674Z" fill="#C83C4F"/>
<path d="M327.838 246.39L327.775 244.879C327.771 244.68 327.692 244.49 327.555 244.347C327.339 244.132 327.016 244.067 326.735 244.184C326.453 244.3 326.27 244.575 326.27 244.879L326.333 246.39C326.337 246.588 326.416 246.778 326.554 246.922C326.769 247.137 327.093 247.201 327.374 247.085C327.655 246.968 327.838 246.694 327.838 246.39V246.39Z" fill="#C83C4F"/>
<path d="M229.815 227.039C231.941 228 234.282 227.569 235.551 226.128C235.945 226.45 236.379 226.719 236.843 226.928C239.369 228.07 242.204 227.253 243.176 225.104C243.86 223.591 243.435 221.824 242.245 220.51C243.018 220.121 243.636 219.48 243.998 218.694C244.969 216.544 243.71 213.876 241.184 212.734C240.358 212.358 239.454 212.185 238.547 212.231C238.453 210.546 237.281 208.869 235.415 208.026C232.889 206.884 230.054 207.7 229.082 209.85C228.606 210.903 228.668 212.081 229.151 213.143C226.825 212.434 224.412 213.281 223.531 215.23C222.56 217.38 223.819 220.048 226.345 221.19C226.522 221.27 226.7 221.337 226.879 221.398C226.16 223.486 227.412 225.953 229.815 227.039Z" fill="#EF6876"/>
<mask id="mask9_0_2132" style="mask-type:luminance" maskUnits="userSpaceOnUse" x="223" y="207" width="22" height="21">
<path fill-rule="evenodd" clip-rule="evenodd" d="M229.815 227.039C231.941 228 234.282 227.569 235.551 226.128C235.945 226.45 236.38 226.719 236.844 226.928C239.369 228.07 242.205 227.253 243.176 225.104C243.86 223.591 243.435 221.824 242.245 220.51C243.018 220.121 243.636 219.48 243.998 218.694C244.97 216.544 243.71 213.876 241.184 212.734C240.358 212.358 239.454 212.185 238.548 212.231C238.453 210.546 237.281 208.869 235.415 208.026C232.889 206.884 230.054 207.7 229.082 209.85C228.606 210.903 228.669 212.081 229.151 213.143C226.825 212.434 224.413 213.281 223.531 215.23C222.56 217.38 223.82 220.048 226.345 221.19C226.522 221.27 226.7 221.337 226.879 221.398C226.16 223.486 227.412 225.953 229.815 227.039Z" fill="white"/>
</mask>
<g mask="url(#mask9_0_2132)">
<path d="M236.241 226.986C235.434 226.737 235.551 226.128 235.551 226.128L234.469 224.62C234.469 224.62 232.36 224.019 234.704 227.573" fill="#C83C4F"/>
<path d="M231.61 219.373C227.285 218.609 229.752 214.521 232.417 216.439V216.439C232.417 216.439 231.365 213.648 233.42 214.479C235.474 215.311 234.914 216.717 234.914 216.717" fill="#C83C4F"/>
<path d="M239.268 211.582L238.548 212.231C238.548 212.231 237.084 212.356 236.608 212.97C236.131 213.583 236.211 210.354 238.649 210.888" fill="#C83C4F"/>
</g>
<path d="M232.653 221.378C233.409 221.719 234.24 221.566 234.691 221.054C234.831 221.168 234.986 221.264 235.151 221.338C236.048 221.744 237.056 221.454 237.401 220.69C237.644 220.152 237.493 219.524 237.07 219.057C237.345 218.919 237.565 218.692 237.693 218.412C238.038 217.648 237.591 216.7 236.693 216.294C236.4 216.16 236.078 216.099 235.756 216.116C235.723 215.517 235.306 214.921 234.643 214.621C233.745 214.215 232.738 214.506 232.393 215.269C232.23 215.644 232.239 216.072 232.417 216.44C231.591 216.188 230.733 216.489 230.42 217.181C230.075 217.945 230.522 218.893 231.42 219.299C231.483 219.327 231.546 219.352 231.61 219.373C231.354 220.115 231.799 220.992 232.653 221.378Z" fill="#F8B32D"/>
<path d="M240.593 222.644L240.544 221.47C240.541 221.315 240.48 221.167 240.373 221.056C240.205 220.889 239.954 220.839 239.735 220.929C239.516 221.02 239.374 221.233 239.374 221.47L239.423 222.644C239.426 222.799 239.487 222.947 239.594 223.058C239.762 223.225 240.014 223.275 240.232 223.185C240.451 223.094 240.593 222.881 240.593 222.644V222.644Z" fill="#C83C4F"/>
<path d="M228.064 216.98L228.015 215.805C228.012 215.651 227.951 215.503 227.844 215.392C227.676 215.224 227.425 215.174 227.206 215.265C226.987 215.355 226.845 215.569 226.845 215.805L226.894 216.98C226.897 217.134 226.958 217.282 227.065 217.394C227.233 217.561 227.484 217.611 227.703 217.52C227.922 217.43 228.064 217.217 228.064 216.98V216.98Z" fill="#C83C4F"/>
<path d="M348.737 168.191C350.863 169.152 353.204 168.721 354.473 167.28C354.867 167.602 355.302 167.871 355.766 168.08C358.291 169.222 361.127 168.405 362.098 166.256C362.782 164.743 362.357 162.976 361.167 161.662C361.94 161.273 362.558 160.632 362.92 159.846C363.892 157.697 362.632 155.028 360.106 153.887C359.28 153.51 358.376 153.337 357.47 153.384C357.375 151.698 356.203 150.022 354.337 149.178C351.812 148.036 348.976 148.853 348.005 151.002C347.528 152.056 347.591 153.233 348.073 154.295C345.748 153.586 343.335 154.434 342.454 156.382C341.482 158.532 342.742 161.2 345.267 162.342C345.444 162.422 345.622 162.49 345.801 162.55C345.082 164.639 346.335 167.105 348.737 168.191Z" fill="#EF6876"/>
<mask id="mask10_0_2132" style="mask-type:luminance" maskUnits="userSpaceOnUse" x="342" y="148" width="22" height="21">
<path fill-rule="evenodd" clip-rule="evenodd" d="M348.737 168.191C350.863 169.152 353.204 168.721 354.473 167.28C354.867 167.602 355.302 167.871 355.766 168.08C358.291 169.222 361.127 168.405 362.098 166.256C362.782 164.743 362.357 162.976 361.167 161.662C361.94 161.273 362.558 160.632 362.92 159.846C363.892 157.697 362.632 155.028 360.106 153.887C359.28 153.51 358.376 153.337 357.47 153.384C357.375 151.698 356.203 150.022 354.337 149.178C351.812 148.036 348.976 148.853 348.005 151.002C347.528 152.056 347.591 153.233 348.073 154.295C345.748 153.586 343.335 154.434 342.454 156.382C341.482 158.532 342.742 161.2 345.267 162.342C345.444 162.422 345.622 162.49 345.801 162.55C345.082 164.639 346.335 167.105 348.737 168.191Z" fill="white"/>
</mask>
<g mask="url(#mask10_0_2132)">
<path d="M355.163 168.138C354.356 167.889 354.473 167.28 354.473 167.28L353.392 165.772C353.392 165.772 351.282 165.172 353.626 168.725" fill="#C83C4F"/>
<path d="M350.532 160.525C346.207 159.761 348.674 155.673 351.339 157.592V157.592C351.339 157.592 350.287 154.8 352.342 155.631C354.396 156.463 353.836 157.869 353.836 157.869" fill="#C83C4F"/>
<path d="M358.19 152.734L357.47 153.384C357.47 153.384 356.006 153.508 355.53 154.122C355.054 154.735 355.134 151.506 357.571 152.04" fill="#C83C4F"/>
</g>
<path d="M351.575 162.53C352.331 162.871 353.163 162.718 353.614 162.206C353.754 162.32 353.908 162.416 354.073 162.49C354.971 162.896 355.978 162.606 356.323 161.842C356.566 161.305 356.415 160.676 355.992 160.21C356.267 160.071 356.487 159.844 356.615 159.564C356.961 158.8 356.513 157.852 355.615 157.447C355.322 157.313 355.001 157.251 354.679 157.268C354.645 156.669 354.229 156.073 353.565 155.773C352.668 155.367 351.66 155.658 351.315 156.422C351.153 156.797 351.161 157.224 351.339 157.592C350.513 157.34 349.656 157.641 349.342 158.334C348.997 159.097 349.445 160.045 350.342 160.451C350.405 160.48 350.468 160.504 350.532 160.525C350.276 161.267 350.722 162.144 351.575 162.53Z" fill="#F8B32D"/>
<path d="M359.516 163.796L359.466 162.622C359.463 162.467 359.402 162.32 359.295 162.208C359.128 162.041 358.876 161.991 358.657 162.081C358.439 162.172 358.296 162.385 358.296 162.622L358.345 163.796C358.348 163.951 358.41 164.099 358.517 164.21C358.684 164.378 358.936 164.428 359.155 164.337C359.373 164.246 359.516 164.033 359.516 163.796V163.796Z" fill="#C83C4F"/>
<path d="M346.987 158.132L346.937 156.958C346.934 156.803 346.873 156.655 346.766 156.544C346.599 156.376 346.347 156.326 346.128 156.417C345.91 156.507 345.767 156.721 345.767 156.958L345.816 158.132C345.819 158.287 345.881 158.434 345.988 158.546C346.155 158.713 346.407 158.763 346.625 158.673C346.844 158.582 346.987 158.369 346.987 158.132V158.132Z" fill="#C83C4F"/>
<path d="M212.085 224.199C212.771 224.509 213.528 224.37 213.938 223.904C214.065 224.008 214.205 224.095 214.355 224.163C215.171 224.532 216.087 224.268 216.401 223.574C216.622 223.085 216.485 222.514 216.1 222.09C216.35 221.964 216.549 221.757 216.666 221.503C216.98 220.809 216.573 219.947 215.757 219.578C215.491 219.456 215.198 219.4 214.906 219.415C214.875 218.871 214.496 218.329 213.894 218.057C213.078 217.688 212.162 217.952 211.848 218.646C211.7 218.987 211.708 219.375 211.87 219.71C211.119 219.481 210.339 219.755 210.055 220.384C209.741 221.078 210.148 221.94 210.964 222.309C211.021 222.335 211.078 222.357 211.136 222.377C210.904 223.051 211.308 223.848 212.085 224.199Z" fill="#EF6876"/>
<mask id="mask11_0_2132" style="mask-type:luminance" maskUnits="userSpaceOnUse" x="209" y="217" width="8" height="8">
<path fill-rule="evenodd" clip-rule="evenodd" d="M212.085 224.199C212.771 224.509 213.528 224.37 213.938 223.904C214.065 224.008 214.205 224.095 214.355 224.163C215.171 224.532 216.087 224.268 216.401 223.574C216.622 223.085 216.485 222.514 216.1 222.09C216.35 221.964 216.549 221.757 216.666 221.503C216.98 220.809 216.573 219.947 215.757 219.578C215.491 219.456 215.198 219.4 214.906 219.415C214.875 218.871 214.496 218.329 213.894 218.057C213.078 217.688 212.162 217.952 211.848 218.646C211.7 218.987 211.708 219.375 211.87 219.71C211.119 219.481 210.339 219.755 210.055 220.384C209.741 221.078 210.148 221.94 210.964 222.309C211.021 222.335 211.078 222.357 211.136 222.377C210.904 223.051 211.308 223.848 212.085 224.199Z" fill="white"/>
</mask>
<g mask="url(#mask11_0_2132)">
<path d="M214.16 224.182C213.9 224.101 213.938 223.904 213.938 223.904L213.588 223.417C213.588 223.417 212.907 223.223 213.664 224.371" fill="#C83C4F"/>
<path d="M212.664 221.722C211.267 221.476 212.064 220.155 212.925 220.775V220.775C212.925 220.775 212.585 219.873 213.249 220.141C213.913 220.41 213.732 220.864 213.732 220.864" fill="#C83C4F"/>
<path d="M215.138 219.206L214.906 219.415C214.906 219.415 214.433 219.456 214.279 219.654C214.125 219.852 214.151 218.809 214.938 218.981" fill="#C83C4F"/>
</g>
<path d="M213.001 222.37C213.22 222.481 213.486 222.439 213.66 222.265C213.705 222.302 213.755 222.333 213.808 222.357C214.098 222.488 214.424 222.395 214.535 222.148C214.609 221.966 214.566 221.759 214.428 221.62C214.517 221.576 214.588 221.502 214.63 221.412C214.741 221.165 214.597 220.859 214.307 220.728C214.212 220.685 214.108 220.665 214.004 220.67C213.982 220.455 213.844 220.27 213.644 220.187C213.354 220.056 213.029 220.15 212.917 220.397C212.865 220.518 212.868 220.656 212.925 220.775C212.681 220.682 212.405 220.784 212.28 221.014C212.169 221.261 212.313 221.567 212.603 221.698C212.623 221.708 212.644 221.715 212.664 221.722C212.595 221.993 212.74 222.272 213.001 222.37Z" fill="#F8B32D"/>
<path d="M215.567 222.779L215.551 222.4C215.55 222.35 215.53 222.302 215.495 222.266C215.441 222.212 215.36 222.196 215.289 222.225C215.219 222.254 215.173 222.323 215.173 222.4L215.189 222.779C215.189 222.829 215.209 222.877 215.244 222.913C215.298 222.967 215.379 222.983 215.45 222.954C215.521 222.924 215.567 222.856 215.567 222.779V222.779Z" fill="#C83C4F"/>
<path d="M211.519 220.949L211.503 220.57C211.502 220.52 211.483 220.472 211.448 220.436C211.394 220.382 211.313 220.366 211.242 220.395C211.171 220.424 211.125 220.493 211.125 220.57L211.141 220.949C211.142 220.999 211.162 221.047 211.197 221.083C211.251 221.137 211.332 221.153 211.403 221.124C211.473 221.095 211.519 221.026 211.519 220.949Z" fill="#C83C4F"/>
<path d="M208.831 332.146C208.319 334.127 209.055 336.905 210.643 335.614C220.928 327.25 224.859 298.174 251.048 278.968C304.99 239.41 340.965 178.468 291.785 212.191C246.542 243.215 213.785 312.971 208.831 332.146Z" fill="#009F9C"/>
<mask id="mask12_0_2132" style="mask-type:luminance" maskUnits="userSpaceOnUse" x="208" y="202" width="108" height="134">
<path fill-rule="evenodd" clip-rule="evenodd" d="M208.831 332.146C208.319 334.127 209.055 336.905 210.643 335.614C220.928 327.25 224.859 298.174 251.048 278.968C304.99 239.41 340.965 178.468 291.785 212.191C246.542 243.215 213.785 312.971 208.831 332.146Z" fill="white"/>
</mask>
<g mask="url(#mask12_0_2132)">
<path d="M338.438 210.133C275.192 225.694 218.163 308.249 208.669 343.856Z" fill="#009F9C"/>
<path d="M338.438 210.133C275.192 225.694 218.163 308.249 208.669 343.856" stroke="#006E7E" stroke-width="0.845"/>
<path d="M336.776 197.077C248.234 221.606 201.946 347.417 201.946 347.417" stroke="#006E7E" stroke-width="0.845"/>
<path d="M231.442 281.546C252.448 263.158 202.851 335.954 218.155 333.052C233.458 330.151 212.094 352.043 212.094 352.043L201.392 340.638L201.544 337.966" fill="#006E7E"/>
</g>
<path d="M298.255 213.881L296.136 216.909C295.98 217.179 296.07 217.523 296.338 217.682C296.609 217.831 296.949 217.742 297.111 217.479L299.231 214.451C299.386 214.182 299.296 213.837 299.028 213.679C298.758 213.53 298.418 213.619 298.255 213.881V213.881Z" fill="#006E7E"/>
<path d="M264.732 260.097L262.007 262.519C261.788 262.74 261.788 263.096 262.007 263.318C262.23 263.531 262.582 263.531 262.805 263.318L265.531 260.895C265.749 260.674 265.749 260.318 265.531 260.097C265.307 259.883 264.956 259.883 264.732 260.097H264.732Z" fill="#006E7E"/>
<path d="M242.226 211.219C267.336 194.075 268.949 199.196 258.68 183.71C258.742 183.67 232.689 201.235 232.533 201.34L242.226 211.219Z" fill="#F9BDA3"/>
<mask id="mask13_0_2132" style="mask-type:luminance" maskUnits="userSpaceOnUse" x="232" y="183" width="33" height="29">
<path fill-rule="evenodd" clip-rule="evenodd" d="M242.226 211.219C267.336 194.075 268.949 199.196 258.68 183.71C258.742 183.67 232.689 201.235 232.533 201.34L242.226 211.219Z" fill="white"/>
</mask>
<g mask="url(#mask13_0_2132)">
<path d="M249.136 186.728L248.906 203.773L232.533 201.34L249.136 186.728V186.728Z" fill="#EB8176"/>
</g>
<path d="M254.458 185.342L261.351 180.027L290.74 223.858C290.74 223.858 283.462 229.655 267.398 201.87L256.488 201.879C256.488 201.879 260.072 191.616 254.458 185.342Z" fill="#685048"/>
<path d="M121.839 325.927C119.935 358.833 114.722 356.911 134.255 357.36C134.25 357.43 136.365 323.565 136.375 323.394L121.839 325.927Z" fill="#F9BDA3"/>
<mask id="mask14_0_2132" style="mask-type:luminance" maskUnits="userSpaceOnUse" x="119" y="323" width="18" height="35">
<path fill-rule="evenodd" clip-rule="evenodd" d="M121.839 325.927C119.935 358.834 114.722 356.911 134.255 357.36C134.25 357.43 136.365 323.565 136.375 323.394L121.839 325.927Z" fill="white"/>
</mask>
<g mask="url(#mask14_0_2132)">
<path d="M135.616 349.112L121.486 338.463L137.394 330.063L135.616 349.112V349.112Z" fill="#EB8176"/>
</g>
<path d="M135.616 352.62V361.982L79.916 361.154C79.916 361.154 79.7611 351.155 113.412 353.953L120.451 344.284C120.451 344.284 126.734 353.748 135.616 352.62Z" fill="#685048"/>
<path d="M136.294 88.8179C120.456 88.443 100.959 91.0192 99.5857 88.3376C85.6091 77.2688 63.9553 53.2113 60.6675 39.4798C49.5265 44.8853 48.1353 43.7506 51.5922 51.5667C33.8595 38.137 34.3023 45.0665 50.7751 54.9247C67.3972 70.4732 79.2607 92.5639 86.6189 99.3982C95.9645 108.078 134.309 105.783 136.294 106.255V88.8179Z" fill="#F9BDA3"/>
<mask id="mask15_0_2132" style="mask-type:luminance" maskUnits="userSpaceOnUse" x="38" y="39" width="99" height="68">
<path fill-rule="evenodd" clip-rule="evenodd" d="M136.294 88.8179C120.456 88.443 100.959 91.0192 99.5857 88.3376C85.6091 77.2688 63.9553 53.2113 60.6675 39.4798C49.5265 44.8853 48.1353 43.7506 51.5922 51.5667C33.8595 38.137 34.3023 45.0665 50.7751 54.9247C67.3972 70.4732 79.2607 92.5639 86.6189 99.3982C95.9645 108.078 134.309 105.783 136.294 106.255V88.8179Z" fill="white"/>
</mask>
<g mask="url(#mask15_0_2132)">
<path d="M100.336 107.344C115.275 107.592 113.438 89.4174 113.438 89.4174C121.08 96.1181 123.347 103.279 118.564 110.688" fill="#EB8176"/>
</g>
<path d="M181.492 97.3578C188.316 99.4844 208.474 114.263 211.743 114.894C214.827 115.459 250.811 114.316 256.539 112.669C259.163 112.941 269 92.1442 274.644 97.5601C285.786 98.7895 265.878 110.32 266.779 114.599C267.28 116.297 274.601 109.463 276.026 109.098C276.996 109.151 276.048 113.777 269.334 118.011C258.848 123.8 236.348 123.663 217.691 126.213C206.802 131.174 180.088 112.394 170.753 107.76L181.492 97.3578Z" fill="#F9BDA3"/>
<mask id="mask16_0_2132" style="mask-type:luminance" maskUnits="userSpaceOnUse" x="170" y="96" width="109" height="32">
<path fill-rule="evenodd" clip-rule="evenodd" d="M181.492 97.3578C188.316 99.4844 208.474 114.263 211.743 114.894C214.827 115.459 250.811 114.316 256.539 112.669C259.163 112.941 269 92.1442 274.644 97.5601C285.786 98.7895 265.878 110.32 266.779 114.599C267.28 116.297 274.601 109.463 276.026 109.098C276.996 109.151 276.048 113.777 269.334 118.011C258.848 123.8 236.348 123.663 217.691 126.213C206.802 131.174 180.088 112.394 170.753 107.76L181.492 97.3578Z" fill="white"/>
</mask>
<g mask="url(#mask16_0_2132)">
<path d="M190.976 102.286C183.574 110.873 184.246 116.876 184.246 116.876L170.753 113.615L181.737 102.076" fill="#EB8176"/>
</g>
<path d="M172.011 335.412C165.489 342.432 139.423 343.41 139.925 342.261C139.925 342.261 134.865 335.53 133.687 331.089C133.466 332.574 132.03 341.805 131.483 342.211C126.735 342.833 117.137 337.483 118.366 336.874C118.41 333.951 118.256 289.052 119.761 263.634C123.385 202.434 137.317 175.464 145.162 148.327C142.173 147.119 169.718 154.961 176.436 156.694C178.874 157.058 176.958 157.284 176.876 160.35C162.419 224.453 158.216 242.015 157.229 252.346C155.963 265.59 167.747 274.454 172.011 335.412Z" fill="#37566B"/>
<mask id="mask17_0_2132" style="mask-type:luminance" maskUnits="userSpaceOnUse" x="118" y="148" width="60" height="195">
<path fill-rule="evenodd" clip-rule="evenodd" d="M172.011 335.412C165.489 342.432 139.423 343.41 139.925 342.261C139.925 342.261 134.865 335.53 133.687 331.089C133.466 332.574 132.03 341.805 131.483 342.211C126.735 342.833 117.137 337.483 118.366 336.874C118.41 333.951 118.256 289.052 119.761 263.634C123.385 202.434 137.317 175.464 145.162 148.327C142.173 147.119 169.718 154.961 176.436 156.694C178.874 157.058 176.958 157.284 176.876 160.35C162.419 224.453 158.216 242.015 157.229 252.346C155.963 265.59 167.747 274.454 172.011 335.412Z" fill="white"/>
</mask>
<g mask="url(#mask17_0_2132)">
<path d="M128.112 235.737C127.934 249.415 109.51 250.954 107.178 237.582C105.013 221.018 127.813 220.263 128.112 235.737Z" fill="#1F4454"/>
<path d="M162.343 191.926C151.986 206.048 136.972 238.354 136.39 242.264C135.809 246.174 134.965 317.047 134.965 317.047" stroke="#1F4454" stroke-width="1.78188" stroke-linecap="round" stroke-linejoin="round"/>
<path d="M152.473 180.027C145.744 168.231 139.033 229.607 150.39 253.036C161.748 276.465 183.823 242.015 183.823 242.015L170.754 205.023" fill="#1F4454"/>
</g>
<path d="M149.109 149.052C150.409 148.707 181.682 138.541 177.096 139.287C218.902 132.485 183.088 217.425 186.751 218.143L245.269 191.714C250.492 199.139 237.682 200.903 237.838 203.413C253.61 197.127 249.617 207.022 249.617 218.575C249.617 225.921 248.984 245.15 243.486 248.784C150.723 288.67 136.39 242.264 152.473 180.027" fill="#37566B"/>
<mask id="mask18_0_2132" style="mask-type:luminance" maskUnits="userSpaceOnUse" x="146" y="138" width="105" height="126">
<path fill-rule="evenodd" clip-rule="evenodd" d="M149.109 149.052C150.409 148.707 181.682 138.541 177.096 139.287C218.902 132.485 183.088 217.425 186.751 218.143L245.269 191.714C250.492 199.139 237.682 200.903 237.838 203.413C253.61 197.127 249.617 207.022 249.617 218.575C249.617 225.921 248.984 245.15 243.486 248.784C150.723 288.67 136.39 242.264 152.473 180.027" fill="white"/>
</mask>
<g mask="url(#mask18_0_2132)">
<path d="M144.2 143.067C167.477 184.143 185.924 131.517 191.166 167.463C195.738 198.819 203.472 139.274 203.472 139.274L195.269 132.064" fill="#1F4454"/>
<path d="M182.411 254.117C179.073 262.629 159.966 255.77 162.646 246.903C165.984 238.392 185.09 245.251 182.411 254.117Z" fill="#1F4454"/>
</g>
<path d="M205.193 132.707C202.286 147.271 189.544 140.572 172.105 150.678C154.667 160.783 139.592 154.675 139.592 154.675L136.294 122.028C136.294 122.028 126.21 115.175 128.744 107.232C125.769 107.009 112.147 114.043 114.338 110.981C112.214 104.671 111.473 86.1099 113.818 87.673C123.728 85.3159 165.97 81.0941 184.81 95.3589C200.318 101.342 186.511 109.086 180.125 114.876C177.06 113.369 169.336 106.829 170.291 109.646C164.611 130.833 202.651 138.087 205.193 132.707Z" fill="#F7F0F0"/>
<mask id="mask19_0_2132" style="mask-type:luminance" maskUnits="userSpaceOnUse" x="112" y="85" width="94" height="72">
<path fill-rule="evenodd" clip-rule="evenodd" d="M205.193 132.707C202.286 147.271 189.544 140.572 172.105 150.678C154.667 160.783 139.592 154.675 139.592 154.675L136.294 122.028C136.294 122.028 126.21 115.175 128.744 107.232C125.769 107.009 112.147 114.043 114.338 110.981C112.214 104.671 111.473 86.1099 113.818 87.673C123.728 85.3159 165.97 81.0941 184.81 95.3589C200.318 101.342 186.511 109.086 180.125 114.876C177.06 113.369 169.336 106.829 170.291 109.646C164.611 130.833 202.651 138.087 205.193 132.707Z" fill="white"/>
</mask>
<g mask="url(#mask19_0_2132)">
<path d="M172.832 113.531C172.423 109.43 166.93 106.231 164.052 104.668C164.052 104.668 163.272 124.48 182.309 130.545C201.346 136.61 176.595 117.879 176.595 117.879" fill="#E2D7D7"/>
<path d="M110.746 117.754C119.225 112.832 127.362 109.273 133.762 100.571C133.762 100.571 121.919 110.101 112.875 110.981" fill="#E2D7D7"/>
<path d="M122.342 83.8306C113.42 83.5442 122.451 110.898 122.338 110.977L106.288 110.984L107.458 82.7215" stroke="#E2D7D7" stroke-width="1.78188" stroke-linecap="round" stroke-linejoin="round"/>
<path d="M187.313 92.8392C192.295 100.756 172.832 113.531 172.832 113.531L181.544 119.68L196.344 101.87" stroke="#E2D7D7" stroke-width="1.78188" stroke-linecap="round" stroke-linejoin="round"/>
<path d="M117.707 133.466C118.964 133.404 120.545 133.031 123.591 134.018C122.335 134.083 120.754 134.45 117.707 133.466Z" fill="#68222A"/>
<path d="M118.334 135.232C119.427 134.847 120.736 134.075 123.694 134.234C122.602 134.622 121.292 135.389 118.334 135.232Z" fill="#68222A"/>
<path d="M118.911 136.793C119.862 136.157 120.926 135.092 123.801 134.532C122.851 135.171 121.785 136.23 118.911 136.793Z" fill="#68222A"/>
<path d="M155.467 120.127C167.051 116.711 159.116 104.727 155.012 110.732C150.548 117.265 146.771 106.607 156.725 106.26C164.968 105.973 166.137 116.953 159.687 120.999C153.237 125.045 155.467 120.127 155.467 120.127Z" fill="#F4AB37"/>
<mask id="mask20_0_2132" style="mask-type:luminance" maskUnits="userSpaceOnUse" x="150" y="106" width="14" height="17">
<path fill-rule="evenodd" clip-rule="evenodd" d="M155.467 120.127C167.051 116.711 159.116 104.727 155.012 110.732C150.548 117.265 146.771 106.607 156.725 106.26C164.968 105.973 166.137 116.953 159.687 120.999C153.237 125.045 155.467 120.127 155.467 120.127Z" fill="white"/>
</mask>
<g mask="url(#mask20_0_2132)">
<path d="M157.541 105.725C157.656 109.695 149.5 106.607 155.373 103.553C156.062 103.655 156.714 103.75 157.541 105.725Z" fill="#9B5431"/>
<path d="M162.028 112.616C162.142 116.587 153.986 113.498 159.859 110.444C160.548 110.546 161.2 110.641 162.028 112.616Z" fill="#9B5431"/>
</g>
<path d="M159.802 138.811C166.456 125.461 161.482 105.01 147.504 120.126C132.001 136.89 131.999 131.385 133.209 126.365C133.209 126.365 131.553 126.488 129.857 129.079C129.857 129.079 128.81 128.029 127.275 129.244C127.275 129.244 127.004 126.698 127.004 126.05C125.007 129.019 114.983 136.651 126.426 140.303C130.476 145.423 140.051 141.88 141.836 142.954C151.899 142.939 157.217 146.735 159.802 138.811" fill="#F4AB37"/>
<mask id="mask21_0_2132" style="mask-type:luminance" maskUnits="userSpaceOnUse" x="121" y="114" width="42" height="30">
<path fill-rule="evenodd" clip-rule="evenodd" d="M159.802 138.811C166.456 125.461 161.482 105.01 147.504 120.126C132.001 136.89 131.999 131.385 133.209 126.365C133.209 126.365 131.553 126.488 129.857 129.079C129.857 129.079 128.81 128.029 127.275 129.244C127.275 129.244 127.004 126.698 127.004 126.05C125.007 129.019 114.983 136.651 126.426 140.303C130.476 145.423 140.051 141.88 141.836 142.954C151.899 142.939 157.217 146.735 159.802 138.811" fill="white"/>
</mask>
<g mask="url(#mask21_0_2132)">
<path d="M116.935 140.655C123.234 144.794 127.986 136.214 137.823 136.379C138.338 140.114 124.445 151.313 120.653 143.209" fill="#F28C38"/>
<path d="M138.743 128.306C138.739 128.732 128.706 138.383 132.74 129.335Z" fill="#F28C38"/>
<path d="M139.38 144.513C140.025 140.303 144.203 136.871 148.405 139.46C154.735 124.32 157.502 137.709 152.518 145.277C152.71 146.766 143.047 145.139 142.237 145.521" fill="#F28C38"/>
<path d="M152.218 120.254C152.284 126.791 141.364 128.474 140.589 120.258C140.523 113.723 151.443 112.039 152.218 120.254Z" fill="#9B5431"/>
<path d="M168.537 127.618C168.603 134.154 157.683 135.838 156.909 127.622C156.842 121.086 167.762 119.403 168.537 127.618Z" fill="#9B5431"/>
<path d="M127.72 134.232C127.786 140.769 116.866 142.452 116.091 134.236C116.025 127.701 126.945 126.017 127.72 134.232Z" fill="#9B5431"/>
</g>
<path d="M122.957 143.91C147.05 147.316 141.054 130.583 130.786 138.698C127.285 144.055 123.397 138.833 122.957 143.91Z" fill="#F4AB37"/>
<path d="M156.696 143.896L143.044 143.902C143.044 143.902 143.042 138.666 149.613 141.902C149.613 141.902 150.049 134.73 154.402 131.296" fill="#F4AB37"/>
</g>
<path d="M162.343 68.2631C160.585 71.7081 160.982 87.3079 160.982 87.3079C160.982 87.3079 150.738 99.4697 142.723 99.3978C134.708 99.326 144.613 84.1952 144.613 84.1952L146.46 69.5594L162.343 68.2631Z" fill="#F9BDA3"/>
<mask id="mask22_0_2132" style="mask-type:luminance" maskUnits="userSpaceOnUse" x="139" y="68" width="24" height="32">
<path fill-rule="evenodd" clip-rule="evenodd" d="M162.343 68.2631C160.585 71.7081 160.982 87.3079 160.982 87.3079C160.982 87.3079 150.738 99.4697 142.723 99.3978C134.708 99.326 144.613 84.1952 144.613 84.1952L146.46 69.5594L162.343 68.2631Z" fill="white"/>
</mask>
<g mask="url(#mask22_0_2132)">
<path d="M154.12 75.0054C154.536 79.5012 146.283 83.7161 144.78 84.129C144.688 85.9128 141.492 75.6895 140.976 75.0271C142.535 73.7203 152.252 69.2591 154.12 75.0054Z" fill="#EB8176"/>
</g>
<path d="M147.766 42.5418C150.721 42.6866 152.791 36.3991 157.742 37.9848C162.693 39.5704 161.04 34.0795 166.858 39.1822C172.676 44.2849 169.706 53.0727 169.706 53.0727L147.766 42.5418Z" fill="#2B71A6"/>
<mask id="mask23_0_2132" style="mask-type:luminance" maskUnits="userSpaceOnUse" x="147" y="36" width="24" height="18">
<path fill-rule="evenodd" clip-rule="evenodd" d="M147.766 42.5418C150.721 42.6866 152.791 36.3991 157.742 37.9848C162.693 39.5704 161.04 34.0795 166.858 39.1822C172.676 44.2849 169.706 53.0727 169.706 53.0727L147.766 42.5418Z" fill="white"/>
</mask>
<g mask="url(#mask23_0_2132)">
<path d="M173.348 45.6044C163.384 46.4904 153.437 40.2054 155.732 44.1095C158.027 48.0136 171.284 53.2066 171.284 53.2066L173.369 50.3473" fill="#507EB5"/>
</g>
<path d="M142.391 51.5686C142.439 55.3227 130.349 69.8662 139.075 74.4209C147.8 78.9757 152.029 70.6104 152.029 70.6104L149.399 51.3906L142.391 51.5686Z" fill="#60272B"/>
<mask id="mask24_0_2132" style="mask-type:luminance" maskUnits="userSpaceOnUse" x="135" y="51" width="18" height="25">
<path fill-rule="evenodd" clip-rule="evenodd" d="M142.391 51.5686C142.439 55.3227 130.349 69.8662 139.075 74.4209C147.8 78.9757 152.029 70.6104 152.029 70.6104L149.399 51.3906L142.391 51.5686Z" fill="white"/>
</mask>
<g mask="url(#mask24_0_2132)">
<path d="M139.657 63.4729C136.401 72.8087 143.952 79.3024 143.952 79.3024L150.683 73.223L145.49 61.1848" fill="#4A222B"/>
</g>
<path d="M142.391 51.5686C144.6 58.0072 133.495 64.6625 143.539 77.2488C152.35 88.2898 170.061 57.625 165.861 52.1828C161.661 46.7406 142.391 51.5686 142.391 51.5686Z" fill="#F9BDA3"/>
<mask id="mask25_0_2132" style="mask-type:luminance" maskUnits="userSpaceOnUse" x="139" y="49" width="28" height="31">
<path fill-rule="evenodd" clip-rule="evenodd" d="M142.391 51.5685C144.6 58.0072 133.495 64.6625 143.539 77.2488C152.35 88.2898 170.061 57.625 165.861 52.1828C161.661 46.7406 142.391 51.5685 142.391 51.5685Z" fill="white"/>
</mask>
<g mask="url(#mask25_0_2132)">
<path opacity="0.5" d="M133.973 67.3136C134.09 68.5046 135.783 69.4367 137.817 69.4019C139.921 69.3659 141.605 68.3146 141.509 67.0464C141.413 65.7686 139.555 64.822 137.429 64.9371C135.375 65.0482 133.856 66.1142 133.973 67.3136Z" fill="#EB8176"/>
<path d="M138.587 53.5505C145.285 57.0562 152.322 53.9102 152.322 53.9102C152.322 53.9102 152.512 58.6646 159.242 57.4496C159.242 57.4496 161.344 63.0564 158.175 69.3049C155.006 75.5535 164.836 62.3971 164.836 62.3971L159.4 51.2587L147.182 50.2832" fill="#EB8176"/>
</g>
<path d="M152.947 52.0405C151.824 57.7727 159.682 56.3205 159.682 56.3205C163.436 67.0225 153.96 72.1288 154.498 75.3646C155.037 78.6003 164.509 81.847 168.979 80.3691C169.68 54.626 170.647 46.9735 161.811 46.2236C152.974 45.4737 152.947 52.0405 152.947 52.0405Z" fill="#60272B"/>
<mask id="mask26_0_2132" style="mask-type:luminance" maskUnits="userSpaceOnUse" x="152" y="46" width="18" height="35">
<path fill-rule="evenodd" clip-rule="evenodd" d="M152.947 52.0405C151.824 57.7727 159.682 56.3205 159.682 56.3205C163.436 67.0225 153.96 72.1288 154.498 75.3645C155.037 78.6003 164.509 81.847 168.979 80.3691C169.68 54.626 170.647 46.9734 161.811 46.2236C152.974 45.4737 152.947 52.0405 152.947 52.0405Z" fill="white"/>
</mask>
<g mask="url(#mask26_0_2132)">
<path d="M159.286 52.5366C155.037 52.0543 168.119 58.1657 169.402 63.7817C170.685 69.3978 173.757 64.2924 173.757 64.2924L169.079 54.7371" fill="#4A222B"/>
<path d="M164.244 67.6953C164.741 71.4706 156.565 76.0504 156.203 79.9282C155.84 83.8059 160.904 83.9084 160.904 83.9084C160.904 83.9084 157.357 79.4347 161.595 74.8035C165.833 70.1724 164.244 67.6953 164.244 67.6953Z" fill="#4A222B"/>
</g>
<path d="M155.221 49.6397C155.606 55.6567 141.989 53.8153 141.989 53.8153C141.989 53.8153 137.089 49.1233 143.408 48.3262C149.727 47.5291 155.221 49.6397 155.221 49.6397Z" fill="#60272B"/>
<path d="M140.208 50.1118C140.208 50.1118 144.256 41.0255 148.42 41.8027C152.584 42.5798 167.396 44.3586 170.871 50.6567C172.86 54.2619 170.905 62.0977 169.41 62.525C162.589 46.8194 140.208 50.1118 140.208 50.1118Z" fill="#2B71A6"/>
<mask id="mask27_0_2132" style="mask-type:luminance" maskUnits="userSpaceOnUse" x="140" y="41" width="32" height="22">
<path fill-rule="evenodd" clip-rule="evenodd" d="M140.208 50.1118C140.208 50.1118 144.256 41.0255 148.42 41.8027C152.584 42.5798 167.396 44.3586 170.871 50.6567C172.86 54.2619 170.905 62.0977 169.41 62.525C162.589 46.8194 140.208 50.1118 140.208 50.1118Z" fill="white"/>
</mask>
<g mask="url(#mask27_0_2132)">
<path d="M152.612 50.495C150.023 49.1948 169.627 52.4697 172.426 60.9423C172.426 60.9423 169.923 67.7203 169.35 67.0259C168.777 66.3314 159.682 56.3205 159.682 56.3205" fill="#507EB5"/>
</g>
<path d="M148.663 62.3108C147.717 66.4789 151.809 67.4106 153.026 63.4213C154.023 59.0475 149.817 58.4719 148.663 62.3108Z" fill="white"/>
<mask id="mask28_0_2132" style="mask-type:luminance" maskUnits="userSpaceOnUse" x="148" y="59" width="6" height="7">
<path fill-rule="evenodd" clip-rule="evenodd" d="M148.663 62.3108C147.717 66.4789 151.809 67.4106 153.026 63.4213C154.023 59.0475 149.817 58.4719 148.663 62.3108Z" fill="white"/>
</mask>
<g mask="url(#mask28_0_2132)">
<path d="M148.845 62.3877C148.589 64.4403 150.663 64.9242 151.123 62.6428C151.383 60.5431 149.293 60.1555 148.845 62.3877Z" fill="#373947"/>
</g>
<path d="M140.09 60.74C139.238 64.5221 142.591 65.2845 143.659 61.6747C144.552 57.7242 141.109 57.2539 140.09 60.74Z" fill="white"/>
<mask id="mask29_0_2132" style="mask-type:luminance" maskUnits="userSpaceOnUse" x="139" y="58" width="5" height="7">
<path fill-rule="evenodd" clip-rule="evenodd" d="M140.091 60.74C139.238 64.522 142.592 65.2845 143.659 61.6747C144.552 57.7242 141.109 57.2539 140.091 60.74Z" fill="white"/>
</mask>
<g mask="url(#mask29_0_2132)">
<path d="M140.106 61.3038C139.868 63.1639 141.567 63.5757 141.974 61.5107C142.215 59.612 140.503 59.2792 140.106 61.3038Z" fill="#373947"/>
</g>
<path d="M141.403 54.5861C145.673 54.6535 146.31 56.77 143.515 56.8592C140.884 56.9431 138.823 54.5454 141.403 54.5861Z" fill="#373947"/>
<path d="M150.876 56.8924C156.23 56.3323 157.434 58.5642 153.929 59.0731C150.647 59.5497 147.665 57.2283 150.876 56.8924Z" fill="#373947"/>
<path d="M143.514 66.3682C144.403 65.3506 144.582 62.7567 145.403 63.1735C146.344 63.1056 145.213 65.5352 145.629 66.8797C146.051 68.2445 144.936 68.6935 144.171 68.4913C144.169 68.4908 144.169 68.4883 144.167 68.4878C144.165 68.4872 144.163 68.4893 144.162 68.4888C143.409 68.29 142.638 67.371 143.514 66.3682Z" fill="#E67354"/>
<path opacity="0.5" d="M147.3 68.8503C147.416 70.0413 149.109 70.9733 151.143 70.9386C153.248 70.9026 154.931 69.8513 154.836 68.5831C154.739 67.3053 152.881 66.3587 150.755 66.4738C148.702 66.5849 147.183 67.6508 147.3 68.8503Z" fill="#EB8176"/>
<path d="M146.101 69.99C145.051 71.5924 143.344 70.4722 143.344 70.4722" stroke="#BA424D" stroke-width="1.24732" stroke-linecap="round" stroke-linejoin="round"/>
<path d="M53.4739 30.664C50.8115 35.1923 38.3561 51.4392 38.7389 56.0382C38.9095 58.0886 52.3391 68.5395 55.2226 63.3668C58.2891 57.8657 69.6702 41.2266 69.5938 37.1406C69.5663 35.6693 66.9445 34.3561 65.3006 33.4207C58.7 29.6647 56.4756 25.5586 53.4739 30.664Z" fill="#685048"/>
<path d="M62.7142 52.6472C49.4453 38.3743 58.0767 37.748 65.1847 49.2663Z" fill="#F9BDA3"/>
<path d="M134.965 99.8399C132.791 100.007 128.493 105.563 128.468 108.388" stroke="#E2D7D7" stroke-width="1.78188" stroke-linecap="round" stroke-linejoin="round"/>
<path d="M163.228 103.477L172.105 109.729" stroke="#E2D7D7" stroke-width="1.78188" stroke-linecap="round" stroke-linejoin="round"/>
<path d="M165.489 167.175C169.336 174.868 178.534 174.367 178.534 174.367" stroke="#1F4454" stroke-width="1.78188" stroke-linecap="round" stroke-linejoin="round"/>
<path d="M177.544 161.489C188.517 225.383 149.258 249.571 229.875 211.219" stroke="#1F4454" stroke-width="1.78188" stroke-linecap="round" stroke-linejoin="round"/>
<path d="M135.884 123.33L138.559 123.665C138.78 123.693 139.071 123.541 139.221 123.391C139.586 123.026 139.586 122.433 139.221 122.068L139.032 121.922C138.888 121.838 138.725 121.794 138.559 121.794L135.884 121.459C135.663 121.431 135.372 121.583 135.222 121.733C134.857 122.098 134.857 122.69 135.222 123.056L135.412 123.202C135.555 123.286 135.718 123.33 135.884 123.33V123.33Z" fill="#E2D7D7"/>
<path d="M172.353 140.417L179.037 139.696C179.283 139.688 179.519 139.591 179.698 139.422C180.064 139.057 180.064 138.464 179.698 138.099C179.525 137.921 179.286 137.822 179.037 137.825L172.353 138.546C172.107 138.554 171.872 138.652 171.692 138.82C171.326 139.186 171.326 139.778 171.692 140.143C171.865 140.322 172.104 140.421 172.353 140.417Z" fill="#E2D7D7"/>
<path d="M144.214 204.551L143.195 206.55C143.073 206.769 143.04 207.027 143.1 207.27C143.167 207.505 143.321 207.705 143.53 207.829C143.745 207.955 144 207.99 144.24 207.927C144.48 207.864 144.685 207.708 144.81 207.494L145.83 205.495C145.951 205.276 145.985 205.018 145.924 204.774C145.857 204.54 145.704 204.34 145.494 204.215C145.28 204.09 145.025 204.055 144.785 204.118C144.545 204.181 144.339 204.337 144.214 204.551V204.551Z" fill="#1F4454"/>
<path d="M110.622 346.126C110.785 346.305 110.943 346.489 111.095 346.677C111.13 346.715 111.162 346.756 111.191 346.799C111.197 346.809 111.064 346.631 111.124 346.712C111.145 346.739 111.166 346.767 111.187 346.794C111.26 346.891 111.331 346.989 111.401 347.088C111.675 347.476 111.925 347.881 112.152 348.299C112.263 348.504 112.368 348.712 112.468 348.923C112.516 349.025 112.562 349.127 112.607 349.23C112.621 349.262 112.636 349.294 112.648 349.326C112.653 349.337 112.566 349.127 112.604 349.222C112.63 349.286 112.657 349.35 112.683 349.414C113.056 350.355 113.312 351.339 113.446 352.343L113.413 352.094C113.509 352.831 113.538 353.576 113.499 354.319L115.242 353.846C114.299 352.327 113.146 350.947 111.818 349.749C109.718 347.846 107.223 346.431 104.511 345.605C104.014 345.473 103.502 345.763 103.361 346.258C103.234 346.755 103.523 347.263 104.014 347.409C104.416 347.531 104.814 347.667 105.207 347.817C105.299 347.853 105.391 347.889 105.483 347.925C105.529 347.944 105.575 347.962 105.62 347.981C105.651 347.994 105.681 348.007 105.712 348.019C105.819 348.063 105.518 347.936 105.625 347.983C105.814 348.065 106.002 348.148 106.189 348.235C106.95 348.592 107.686 349.002 108.391 349.46C108.743 349.689 109.088 349.93 109.424 350.182C109.47 350.217 109.516 350.252 109.562 350.287C109.691 350.385 109.402 350.162 109.529 350.262C109.613 350.328 109.697 350.395 109.781 350.462C109.941 350.592 110.098 350.724 110.254 350.86C110.895 351.416 111.497 352.017 112.056 352.657C112.207 352.83 112.355 353.007 112.5 353.187C112.537 353.232 112.573 353.277 112.608 353.322C112.652 353.377 112.793 353.565 112.614 353.328C112.683 353.42 112.754 353.511 112.822 353.604C113.106 353.989 113.374 354.384 113.626 354.791C113.837 355.13 114.284 355.35 114.683 355.221C115.081 355.098 115.357 354.735 115.37 354.319C115.499 351.63 114.803 348.965 113.375 346.683C112.955 346.015 112.476 345.386 111.945 344.803C111.578 344.441 110.989 344.441 110.622 344.803C110.268 345.173 110.268 345.756 110.622 346.126L110.622 346.126Z" fill="#3A2921"/>
<path d="M262.677 209.982C263.147 208.976 263.675 207.998 264.26 207.054C264.555 206.578 264.864 206.111 265.186 205.653C265.342 205.432 265.502 205.213 265.664 204.997C265.709 204.937 265.754 204.877 265.799 204.818C265.816 204.796 265.833 204.774 265.85 204.751C265.922 204.655 265.732 204.903 265.806 204.808C265.892 204.697 265.979 204.587 266.066 204.478C266.462 203.982 266.875 203.501 267.304 203.033L265.707 202.372C265.801 204.93 265.866 207.489 265.903 210.049C265.939 212.599 265.947 215.148 265.926 217.698C265.914 219.141 265.893 220.585 265.863 222.028C265.863 222.544 266.282 222.963 266.799 222.963C267.316 222.963 267.734 222.544 267.734 222.028C267.787 219.468 267.812 216.908 267.808 214.348C267.803 211.798 267.771 209.249 267.71 206.7C267.675 205.257 267.631 203.814 267.578 202.372C267.573 201.998 267.347 201.663 267.003 201.517C266.655 201.367 266.251 201.444 265.981 201.71C264.411 203.42 263.049 205.31 261.924 207.341C261.617 207.897 261.33 208.462 261.061 209.037C260.941 209.258 260.908 209.515 260.967 209.758C261.034 209.993 261.188 210.193 261.397 210.317C261.811 210.536 262.456 210.455 262.677 209.982L262.677 209.982Z" fill="#3A2921"/>
<path d="M210.685 114.443L209.295 119.781C209.171 120.254 209.451 120.818 209.948 120.932C210.445 121.06 210.954 120.771 211.099 120.278L212.49 114.94C212.613 114.467 212.333 113.903 211.836 113.79C211.339 113.662 210.83 113.951 210.685 114.443V114.443Z" fill="#EB8176"/>
<path d="M96.4283 88.5822L95.0904 89.92C94.9176 90.0973 94.8195 90.3341 94.8164 90.5815C94.8182 90.8293 94.9165 91.0666 95.0904 91.243C95.2662 91.4179 95.5039 91.5164 95.7519 91.517C95.9992 91.5129 96.2356 91.4149 96.4134 91.243L97.7513 89.9052C97.924 89.7279 98.0221 89.4911 98.0253 89.2437C98.0235 88.9959 97.9252 88.7586 97.7513 88.5822C97.5755 88.4073 97.3378 88.3088 97.0898 88.3082C96.8425 88.3123 96.6061 88.4103 96.4283 88.5822V88.5822Z" fill="#EB8176"/>
<path d="M185.551 216.858L185.294 217.86C185.255 217.98 185.249 218.109 185.277 218.233C185.283 218.357 185.321 218.477 185.388 218.581C185.519 218.784 185.717 218.936 185.947 219.011L186.196 219.044C186.362 219.044 186.525 219 186.668 218.916C186.877 218.791 187.031 218.591 187.098 218.357L187.355 217.355C187.394 217.235 187.4 217.106 187.372 216.982C187.367 216.859 187.328 216.739 187.261 216.635C187.13 216.431 186.933 216.279 186.702 216.205L186.453 216.171C186.287 216.171 186.124 216.215 185.981 216.299C185.772 216.424 185.619 216.624 185.551 216.858V216.858Z" fill="#1F4454"/>
<path d="M145.152 319.706C145.123 319.801 145.09 319.894 145.051 319.986L145.145 319.762C145.054 319.969 144.937 320.164 144.799 320.343L144.945 320.153C144.795 320.342 144.623 320.512 144.434 320.661L144.623 320.515C144.419 320.67 144.198 320.799 143.963 320.901L144.187 320.806C143.951 320.905 143.705 320.972 143.452 321.007L143.701 320.974C143.476 321.001 143.249 321.001 143.024 320.972C142.804 320.943 142.511 321.097 142.362 321.246C141.997 321.611 141.997 322.203 142.362 322.569C142.546 322.731 142.779 322.827 143.024 322.843C143.851 322.928 144.683 322.725 145.376 322.266C146.129 321.786 146.689 321.055 146.956 320.203C147.089 319.706 146.798 319.194 146.303 319.053C145.806 318.926 145.298 319.215 145.152 319.706L145.152 319.706Z" fill="#1F4454"/>
<path d="M214.618 305.728C227.335 303.382 230.299 312.271 240.547 307.95C250.795 303.629 232.151 297.455 218.199 303.382L214.618 305.728Z" fill="#009F9C"/>
<mask id="mask30_0_2132" style="mask-type:luminance" maskUnits="userSpaceOnUse" x="214" y="300" width="30" height="10">
<path fill-rule="evenodd" clip-rule="evenodd" d="M214.618 305.728C227.335 303.382 230.299 312.271 240.546 307.95C250.794 303.629 232.151 297.455 218.199 303.382L214.618 305.728Z" fill="white"/>
</mask>
<g mask="url(#mask30_0_2132)">
<path d="M214.932 304.669C229.977 294.799 213.866 306.215 223.867 307.203C233.868 308.19 215.471 311.648 215.471 311.648L212.755 302.881" fill="#006E7E"/>
</g>
<path d="M229.977 294.799C243.188 289.862 250.597 302.686 262.326 301.398C274.056 300.11 255.221 285.202 236.824 291.129L229.977 294.799Z" fill="#009F9C"/>
<mask id="mask31_0_2132" style="mask-type:luminance" maskUnits="userSpaceOnUse" x="229" y="289" width="37" height="13">
<path fill-rule="evenodd" clip-rule="evenodd" d="M229.977 294.799C243.189 289.862 250.597 302.686 262.326 301.398C274.056 300.11 255.221 285.202 236.824 291.129L229.977 294.799Z" fill="white"/>
</mask>
<g mask="url(#mask31_0_2132)">
<path d="M247.969 288.435C239.567 293 231.845 296.268 224.274 297.997V297.997L232.139 288.682" fill="#006E7E"/>
</g>
<path d="M196.932 321.868C209.67 315.812 218.154 327.951 229.729 325.658C241.304 323.365 219.116 310.103 201.298 317.591L196.932 321.868Z" fill="#009F9C"/>
<mask id="mask32_0_2132" style="mask-type:luminance" maskUnits="userSpaceOnUse" x="196" y="315" width="37" height="11">
<path fill-rule="evenodd" clip-rule="evenodd" d="M196.932 321.868C209.67 315.812 218.154 327.951 229.729 325.658C241.304 323.365 219.116 310.103 201.298 317.591L196.932 321.868Z" fill="white"/>
</mask>
<g mask="url(#mask32_0_2132)">
<path d="M210.409 314.364C201.127 318.416 203.824 322.101 198.638 322.348C193.452 322.595 196.251 314.693 196.251 314.693L203.988 311.154" fill="#006E7E"/>
</g>
<path d="M251.679 283.05C262.133 280.663 266.66 291.776 276.62 292.022C286.58 292.269 277.773 276.63 260.24 280.005L251.679 283.05Z" fill="#009F9C"/>
<mask id="mask33_0_2132" style="mask-type:luminance" maskUnits="userSpaceOnUse" x="251" y="279" width="30" height="14">
<path fill-rule="evenodd" clip-rule="evenodd" d="M251.679 283.05C262.133 280.663 266.66 291.776 276.62 292.023C286.58 292.269 277.772 276.63 260.24 280.005L251.679 283.05Z" fill="white"/>
</mask>
<g mask="url(#mask33_0_2132)">
<path d="M264.982 279.528C259.735 283.854 252.29 284.683 247.969 285.777C243.647 286.87 249.87 283.655 249.87 283.655L260.043 275.841" fill="#006E7E"/>
</g>
<path d="M275.678 274.254C288.519 270.55 288.946 284.326 300.141 284.079C311.336 283.832 302.027 268.275 285.407 271.65L275.678 274.254Z" fill="#009F9C"/>
<mask id="mask34_0_2132" style="mask-type:luminance" maskUnits="userSpaceOnUse" x="275" y="271" width="31" height="14">
<path fill-rule="evenodd" clip-rule="evenodd" d="M275.678 274.254C288.519 270.55 288.946 284.326 300.141 284.079C311.336 283.832 302.027 268.275 285.407 271.65L275.678 274.254Z" fill="white"/>
</mask>
<g mask="url(#mask34_0_2132)">
<path d="M280.795 271.171C277.576 276.171 294.347 271.243 296.749 272.298C299.152 273.352 293.215 264.315 292.722 264.81C292.228 265.306 280.796 267.014 280.796 267.014" fill="#006E7E"/>
</g>
<path d="M298.392 268.81C303.331 267.761 309.319 278.503 318.085 278.75C326.851 278.997 321.913 266.711 306.973 267.02L298.392 268.81Z" fill="#009F9C"/>
<mask id="mask35_0_2132" style="mask-type:luminance" maskUnits="userSpaceOnUse" x="298" y="267" width="25" height="12">
<path fill-rule="evenodd" clip-rule="evenodd" d="M298.392 268.81C303.331 267.761 309.319 278.503 318.085 278.75C326.852 278.996 321.913 266.711 306.973 267.02L298.392 268.81Z" fill="white"/>
</mask>
<g mask="url(#mask35_0_2132)">
<path d="M300.322 268.127C296.153 270.091 309.468 268.485 316.094 268.69C322.72 268.896 310.406 266.975 310.406 266.975L308.06 266.1" fill="#006E7E"/>
</g>
<path d="M341.342 265.336C345.649 266.643 346.42 276.735 353.282 280.548C360.145 284.362 360.578 272.111 348.612 266.129L341.342 265.336Z" fill="#009F9C"/>
<mask id="mask36_0_2132" style="mask-type:luminance" maskUnits="userSpaceOnUse" x="341" y="265" width="18" height="17">
<path fill-rule="evenodd" clip-rule="evenodd" d="M341.342 265.336C345.649 266.643 346.419 276.735 353.282 280.548C360.145 284.362 360.578 272.111 348.612 266.129L341.342 265.336Z" fill="white"/>
</mask>
<g mask="url(#mask36_0_2132)">
<path d="M343.344 265.47C337.551 266.689 355.691 269.915 355.691 269.915L352.892 262.671L342.685 262.507" fill="#006E7E"/>
</g>
<path d="M319.752 265.71C332.47 267.254 332.037 278.613 341.236 277.81C350.434 277.008 341.483 264.044 327.778 264.846L319.752 265.71Z" fill="#009F9C"/>
<mask id="mask37_0_2132" style="mask-type:luminance" maskUnits="userSpaceOnUse" x="319" y="264" width="26" height="14">
<path fill-rule="evenodd" clip-rule="evenodd" d="M319.752 265.71C332.47 267.254 332.037 278.613 341.236 277.81C350.434 277.008 341.483 264.044 327.778 264.846L319.752 265.71Z" fill="white"/>
</mask>
<g mask="url(#mask37_0_2132)">
<path d="M323.51 264.547C318.417 266.295 325.153 268.104 339.311 268.351C353.468 268.598 335.113 262.095 335.113 262.095L333.96 261.601" fill="#006E7E"/>
</g>
<path d="M358.182 267.367C369.473 273.498 364.94 283.704 373.804 286.387C382.669 289.07 379.04 273.915 365.976 269.559L358.182 267.367Z" fill="#009F9C"/>
<mask id="mask38_0_2132" style="mask-type:luminance" maskUnits="userSpaceOnUse" x="358" y="267" width="21" height="20">
<path fill-rule="evenodd" clip-rule="evenodd" d="M358.182 267.367C369.473 273.498 364.94 283.704 373.804 286.387C382.669 289.07 379.04 273.915 365.976 269.559L358.182 267.367Z" fill="white"/>
</mask>
<g mask="url(#mask38_0_2132)">
<path d="M360.095 267.075C355.938 269.339 354.209 269.166 364.21 271.331C374.211 273.496 373.923 271.108 367.997 268.474C362.07 265.84 361.247 265.923 361.247 265.923" fill="#006E7E"/>
</g>
<path d="M185.155 337.998L184.045 337.292C187.75 331.474 192.277 325.738 197.502 320.241C216.373 300.385 243.751 283.932 274.592 273.913C305.386 263.909 335.651 261.675 359.939 267.598C360.47 267.729 360.935 268.051 361.244 268.502L361.705 269.171C337.519 263.056 305.91 265.123 274.999 275.165C244.362 285.117 217.178 301.448 198.455 321.147C193.289 326.583 188.814 332.252 185.155 337.998Z" fill="#006E7E"/>
<path d="M226.567 330.972C224 331.403 220.296 328.16 220.899 325.99C233.486 280.649 288.904 257.99 307.018 277.94C323.376 295.955 250.334 326.981 226.567 330.972Z" fill="#8AB570"/>
<mask id="mask39_0_2132" style="mask-type:luminance" maskUnits="userSpaceOnUse" x="220" y="270" width="90" height="62">
<path fill-rule="evenodd" clip-rule="evenodd" d="M226.567 330.972C224 331.403 220.296 328.16 220.899 325.99C233.486 280.649 288.904 257.99 307.018 277.94C323.376 295.955 250.334 326.981 226.567 330.972Z" fill="white"/>
</mask>
<g mask="url(#mask39_0_2132)">
<path d="M215.233 340.888C246.98 291.922 288.612 304.981 313.957 290.246" stroke="#699B49" stroke-width="1.15533"/>
<path d="M321.875 276.84C272.335 267.655 220.014 310.721 218.346 332.933" stroke="#699B49" stroke-width="1.15533"/>
<path d="M268.719 271.023C226.592 300.03 235.608 334.419 232.929 337.276C230.249 340.132 218.726 335.498 217.549 334.924C216.373 334.35 203.454 315.156 203.454 315.156L224.837 283.092" fill="#699B49"/>
</g>
<path d="M282.132 288.43L277.071 287.143C276.601 287.024 276.042 287.296 275.929 287.792C275.819 288.274 276.074 288.806 276.578 288.934L281.638 290.22C282.108 290.34 282.667 290.067 282.78 289.572C282.89 289.089 282.635 288.558 282.132 288.43V288.43Z" fill="#699B49"/>
<path d="M252.817 318.707L248.61 317.756C248.138 317.649 247.583 317.9 247.468 318.404C247.361 318.876 247.61 319.432 248.117 319.546L252.323 320.498C252.796 320.605 253.351 320.354 253.466 319.849C253.573 319.377 253.324 318.822 252.817 318.707V318.707Z" fill="#699B49"/>
<path d="M188.973 355.162C187.613 355.17 186.294 355.165 185.016 355.146C132.954 354.4 147.992 332.436 168.559 332.115C137.939 319.603 167.572 295.897 188.973 305.445C184.363 271.203 234.739 278.117 233.422 301.824C273.59 296.226 254.494 323.883 254.494 323.883C292.029 327.505 294.004 353.187 243.629 352.858L188.973 355.162Z" fill="#009F9C"/>
<mask id="mask40_0_2132" style="mask-type:luminance" maskUnits="userSpaceOnUse" x="149" y="281" width="134" height="75">
<path fill-rule="evenodd" clip-rule="evenodd" d="M188.973 355.162C187.613 355.17 186.294 355.165 185.016 355.146C132.954 354.4 147.992 332.436 168.559 332.115C137.939 319.603 167.572 295.897 188.973 305.445C184.363 271.203 234.739 278.117 233.422 301.824C273.59 296.226 254.494 323.883 254.494 323.883C292.029 327.505 294.004 353.187 243.629 352.858L188.973 355.162Z" fill="white"/>
</mask>
<g mask="url(#mask40_0_2132)">
<path d="M149.549 314.4C178.539 299.83 192.492 315.999 188.973 305.445C185.453 294.892 164.463 294.151 164.463 294.151L153.598 305.263" fill="#006E7E"/>
<path d="M258.176 317.733C250.521 333.784 234.841 330.451 234.594 333.167C234.347 335.883 268.738 326.78 268.738 326.78L264.72 315.881" fill="#006E7E"/>
<path d="M146.88 327.241C148.423 328.899 150.289 330.225 152.363 331.135C159.932 334.499 168.559 332.115 168.559 332.115C168.559 332.115 190.392 333.908 183.478 336.871C176.563 339.834 160.759 333.661 160.759 333.661" fill="#006E7E"/>
<path d="M212.289 315.866C210.042 315.754 208.168 317.422 207.666 319.614C206.756 323.589 202.163 322.343 205.455 323.783C208.839 325.264 218.564 316.179 212.289 315.866Z" fill="#006E7E"/>
</g>
<path d="M207.299 297.804L205.409 299.316C205.276 299.448 205.202 299.627 205.202 299.814C205.203 300.001 205.278 300.179 205.409 300.312C205.541 300.444 205.72 300.518 205.907 300.519L206.094 300.494C206.212 300.461 206.319 300.399 206.405 300.312L208.295 298.8C208.428 298.668 208.502 298.489 208.502 298.302C208.5 298.115 208.426 297.936 208.295 297.804C208.163 297.672 207.984 297.598 207.797 297.597L207.61 297.622C207.492 297.655 207.385 297.717 207.299 297.804V297.804Z" fill="#006E7E"/>
<path d="M246.023 341.593C245.735 341.732 245.444 341.861 245.152 341.989C245.056 342.032 245.258 341.946 245.16 341.986C245.134 341.997 245.107 342.009 245.08 342.02C245.009 342.049 244.937 342.078 244.865 342.107C244.713 342.168 244.56 342.228 244.406 342.285C243.818 342.505 243.221 342.7 242.615 342.868C242.01 343.036 241.399 343.178 240.78 343.293C240.467 343.351 240.152 343.402 239.837 343.447C239.804 343.452 239.698 343.467 239.852 343.446C239.814 343.451 239.775 343.456 239.737 343.461C239.67 343.469 239.603 343.477 239.535 343.485C239.372 343.504 239.209 343.522 239.045 343.537C238.334 343.604 237.62 343.636 236.904 343.632C236.515 343.632 236.199 343.947 236.199 344.336C236.199 344.726 236.515 345.041 236.904 345.041C239.524 345.056 242.126 344.606 244.59 343.715C245.319 343.449 246.034 343.148 246.734 342.811C247.067 342.65 247.182 342.148 246.987 341.846C246.784 341.519 246.36 341.407 246.023 341.593V341.593Z" fill="#006E7E"/>
<path d="M186.803 323.611L180.006 324.783C179.641 324.846 179.404 325.312 179.513 325.65C179.64 326.042 179.99 326.209 180.38 326.142L187.178 324.97C187.542 324.907 187.779 324.44 187.67 324.103C187.543 323.71 187.193 323.543 186.803 323.611Z" fill="#006E7E"/>
<path d="M217.613 71.217L216.202 72.4392C216.577 78.9421 246.641 96.7657 262.754 65.9816C278.867 35.1975 238.45 69.4021 238.45 69.4021" fill="#FAF5F5"/>
<mask id="mask41_0_2132" style="mask-type:luminance" maskUnits="userSpaceOnUse" x="216" y="53" width="51" height="31">
<path fill-rule="evenodd" clip-rule="evenodd" d="M217.613 71.217L216.202 72.4392C216.577 78.9421 246.641 96.7657 262.754 65.9816C278.867 35.1975 238.45 69.4021 238.45 69.4021" fill="white"/>
</mask>
<g mask="url(#mask41_0_2132)">
<path d="M230.561 83.4953C228.37 77.6908 252.584 86.4644 254.399 73.5614C256.214 60.6583 268.36 70.4207 268.639 70.8447C268.918 71.2687 260.123 79.594 260.123 79.594L240.577 87.3239" fill="#EBE1E3"/>
</g>
<path d="M246.827 0.0157471C229.654 32.894 214.367 47.9719 236.565 64.7252L250.1 47.9111C250.1 47.9111 253.388 41.9252 249.619 41.7724C249.619 41.7724 253.249 35.3372 250.177 33.3826C250.177 33.3826 252.411 27.2398 249.479 25.7041C249.479 25.7041 252.69 20.3989 249.06 19.1424C249.06 19.1424 251.294 14.3956 248.921 12.86C248.921 12.86 249.758 7.97359 247.804 7.27553C247.804 7.27545 250.875 0.574182 246.827 0.0157471Z" fill="#3B2921"/>
<mask id="mask42_0_2132" style="mask-type:luminance" maskUnits="userSpaceOnUse" x="225" y="0" width="27" height="65">
<path fill-rule="evenodd" clip-rule="evenodd" d="M246.827 0.0157471C229.654 32.894 214.367 47.9719 236.565 64.7252L250.1 47.9111C250.1 47.9111 253.388 41.9252 249.619 41.7724C249.619 41.7724 253.249 35.3372 250.177 33.3826C250.177 33.3826 252.411 27.2398 249.479 25.7041C249.479 25.7041 252.69 20.3989 249.06 19.1424C249.06 19.1424 251.294 14.3956 248.921 12.86C248.921 12.86 249.758 7.97359 247.804 7.27553C247.804 7.27545 250.875 0.574182 246.827 0.0157471Z" fill="white"/>
</mask>
<g mask="url(#mask42_0_2132)">
<path d="M250.861 30.6141C250.1 47.9111 233.039 52.8686 243.789 53.1336C254.539 53.3986 255.376 33.8532 255.376 33.8532" fill="#160C08"/>
</g>
<path d="M242.723 65.9341C278.658 88.1099 300.995 77.6313 326.404 53.1336C326.404 53.1336 326.125 49.2981 319.982 51.532C319.982 51.532 317.19 49.4998 310.698 53.1336C310.698 53.1336 308.395 50.5469 304.625 53.1336C304.625 53.1336 300.227 51.3226 295.202 54.0449C295.202 54.0449 291.641 52.3696 285.987 55.092C285.987 55.092 283.892 50.6339 277.505 55.2712V55.2712C277.505 55.2712 273.232 53.6304 266.312 57.3977C259.391 61.1651 242.723 65.9341 242.723 65.9341" fill="#3B2921"/>
<path d="M215.833 68.9833C222.534 56.2788 234.122 64.6554 234.122 64.6554C236.077 39.2463 272.375 59.3502 271.677 9.50927C278.099 23.7495 270.56 43.1554 270.56 43.1554C270.56 43.1554 285.359 17.3274 325.148 1.83069C268.297 31.7766 289.687 52.5093 271.119 59.9086C271.119 59.9086 257.297 74.5677 245.291 74.9866C226.537 78.6681 221.694 67.3493 215.831 70.8395L215.833 68.9833Z" fill="#3B2921"/>
<mask id="mask43_0_2132" style="mask-type:luminance" maskUnits="userSpaceOnUse" x="215" y="1" width="111" height="75">
<path fill-rule="evenodd" clip-rule="evenodd" d="M215.833 68.9833C222.534 56.2788 234.122 64.6554 234.122 64.6554C236.077 39.2463 272.375 59.3502 271.677 9.50927C278.099 23.7495 270.56 43.1554 270.56 43.1554C270.56 43.1554 285.359 17.3274 325.148 1.83069C268.297 31.7766 289.687 52.5093 271.119 59.9086C271.119 59.9086 257.297 74.5677 245.291 74.9866C226.537 78.6681 221.694 67.3493 215.831 70.8395L215.833 68.9833Z" fill="white"/>
</mask>
<g mask="url(#mask43_0_2132)">
<path d="M266.548 60.6896C263.055 59.2623 286.509 42.6954 286.509 42.6954L284.564 57.7519" fill="#160C08"/>
</g>
<path d="M245.291 74.9866C229.969 78.5466 229.759 62.4216 215.833 70.3794C215.624 77.2901 228.677 80.3266 245.291 74.9866Z" fill="#631623"/>
<circle cx="222.892" cy="71.5405" r="2.31643" fill="#FAF5F5"/>
<circle cx="222.716" cy="71.0899" r="1.6995" fill="#3B2921"/>
<path d="M211.552 71.217C215.74 74.8004 220.44 73.4508 220.487 72.52C220.533 71.5892 212.389 70.8447 212.389 70.8447" fill="#F68F2E"/>
<path d="M216.202 68.3145C214.39 71.0601 220.719 72.0547 220.487 72.5201C220.332 72.8283 215.299 72.2587 211.823 71.8389C210.051 71.6248 208.683 71.4498 208.573 71.4498C208.247 71.4498 216.202 68.3145 216.202 68.3145Z" fill="#F8B32D"/>
<mask id="mask44_0_2132" style="mask-type:luminance" maskUnits="userSpaceOnUse" x="208" y="68" width="13" height="5">
<path fill-rule="evenodd" clip-rule="evenodd" d="M216.202 68.3144C214.39 71.0601 220.719 72.0547 220.487 72.5201C220.332 72.8283 215.299 72.2587 211.823 71.8389C210.051 71.6248 208.683 71.4498 208.573 71.4498C208.247 71.4497 216.202 68.3144 216.202 68.3144Z" fill="white"/>
</mask>
<g mask="url(#mask44_0_2132)">
<path d="M214.633 68.5231C212.236 70.5474 217.286 70.4612 217.286 70.4612L216.611 67.2899" fill="#F68F2E"/>
</g>
<path d="M248.894 56.8287L246.797 58.9206C246.516 59.2091 246.356 59.5946 246.351 59.9975C246.368 60.3979 246.526 60.7795 246.797 61.0744C247.084 61.3591 247.471 61.5194 247.874 61.5204C248.277 61.5136 248.662 61.3541 248.951 61.0744L251.048 58.9825C251.329 58.694 251.489 58.3085 251.494 57.9056C251.477 57.5052 251.319 57.1236 251.048 56.8287C250.761 56.544 250.374 56.3837 249.971 56.3826C249.568 56.3895 249.183 56.5489 248.894 56.8287H248.894Z" fill="#160C08"/>
<path d="M241.542 22.3579L241.117 23.1923C241.007 23.3616 240.945 23.5571 240.936 23.7586C240.863 24.3627 241.146 24.9547 241.663 25.276L242.027 25.4295C242.292 25.5021 242.572 25.5021 242.837 25.4295L243.201 25.276C243.426 25.1436 243.615 24.9555 243.747 24.7297L244.172 23.8953C244.282 23.726 244.344 23.5305 244.353 23.329C244.426 22.7249 244.143 22.1329 243.626 21.8116L243.262 21.6581C242.997 21.5855 242.717 21.5855 242.452 21.6581L242.089 21.8116C241.863 21.944 241.675 22.1321 241.542 22.3579Z" fill="#160C08"/>
<path d="M298.935 63.1586C299.337 63.1535 299.723 62.9938 300.011 62.7125C300.295 62.4254 300.455 62.039 300.457 61.6356C300.421 60.8105 299.788 60.1127 298.935 60.1127C298.532 60.1178 298.146 60.2775 297.858 60.5588C297.574 60.8459 297.414 61.2323 297.412 61.6356C297.449 62.4608 298.081 63.1586 298.935 63.1586V63.1586Z" fill="#160C08"/>
<path d="M46.9797 205.654C50.653 131.228 168.139 160.309 192.179 168.839C176.67 171.553 76.0059 183.116 91.8286 223.088C107.651 263.061 59.9588 223.088 59.9588 223.088" fill="#3A2921"/>
<mask id="mask45_0_2132" style="mask-type:luminance" maskUnits="userSpaceOnUse" x="46" y="156" width="147" height="85">
<path fill-rule="evenodd" clip-rule="evenodd" d="M46.9797 205.654C50.653 131.228 168.139 160.309 192.179 168.839C176.67 171.553 76.0059 183.116 91.8286 223.088C107.651 263.061 59.9588 223.088 59.9588 223.088" fill="white"/>
</mask>
<g mask="url(#mask45_0_2132)">
<path d="M119.58 183.913C43.2859 197.92 63.1607 218.808 86.3255 226.259C109.49 233.71 112.623 206.826 112.623 206.826" fill="#160C08"/>
</g>
<path d="M28.5517 231.266C-45.5073 246.775 43.286 313.855 86.3255 321.61C44.4492 287.101 40.1735 236.744 61.1222 237.469C82.0708 238.195 28.5517 231.266 28.5517 231.266Z" fill="#3A2921"/>
<mask id="mask46_0_2132" style="mask-type:luminance" maskUnits="userSpaceOnUse" x="0" y="231" width="87" height="91">
<path fill-rule="evenodd" clip-rule="evenodd" d="M28.5517 231.266C-45.5073 246.775 43.286 313.855 86.3255 321.61C44.4492 287.101 40.1735 236.744 61.1222 237.469C82.0708 238.195 28.5517 231.266 28.5517 231.266Z" fill="white"/>
</mask>
<g mask="url(#mask46_0_2132)">
<path d="M36.0521 239.526C10.5285 247.432 58.3852 267.445 58.3852 267.445L53.4546 237.571" fill="#160C08"/>
</g>
<path d="M12.2664 193.267C31.6536 178.92 43.2859 197.92 43.2859 197.92C43.2859 197.92 87.4887 218.47 116.957 238.633C199.353 239.526 208.465 246.388 208.465 246.388C169.981 251.234 122.773 252.204 122.773 252.204C123.161 262.673 181.613 290.784 181.613 290.784C174.052 294.855 107.651 263.06 107.651 263.06C25.062 266.938 19.6336 218.082 19.6336 218.082C4.89937 216.919 9.55229 198.695 9.55229 198.695C-5.95754 192.491 12.2664 193.267 12.2664 193.267Z" fill="#3A2921"/>
<mask id="mask47_0_2132" style="mask-type:luminance" maskUnits="userSpaceOnUse" x="3" y="187" width="206" height="105">
<path fill-rule="evenodd" clip-rule="evenodd" d="M12.2662 193.267C31.6533 178.92 43.2857 197.92 43.2857 197.92C43.2857 197.92 87.4885 218.47 116.957 238.633C199.352 239.526 208.464 246.388 208.464 246.388C169.981 251.234 122.773 252.204 122.773 252.204C123.161 262.673 181.613 290.784 181.613 290.784C174.052 294.855 107.651 263.061 107.651 263.061C25.0617 266.938 19.6334 218.082 19.6334 218.082C4.89913 216.919 9.55205 198.695 9.55205 198.695C-5.95778 192.491 12.2662 193.267 12.2662 193.267Z" fill="white"/>
</mask>
<g mask="url(#mask47_0_2132)">
<path d="M25.528 224.599C24.9641 223.871 24.8337 222.896 25.1861 222.045C25.5385 221.193 26.3198 220.596 27.2337 220.479C47.8284 217.817 33.9471 196.447 43.7706 203.542C54.2396 211.103 113.855 241.638 113.564 247.454C113.274 253.27 109.518 263.106 77.2378 258.744C51.7216 255.295 32.4737 233.557 25.528 224.599Z" fill="#FAF5F5"/>
<mask id="mask48_0_2132" style="mask-type:luminance" maskUnits="userSpaceOnUse" x="24" y="202" width="90" height="58">
<path fill-rule="evenodd" clip-rule="evenodd" d="M25.528 224.599C24.9641 223.871 24.8337 222.896 25.1861 222.045C25.5385 221.193 26.3198 220.596 27.2337 220.479C47.8284 217.817 33.9471 196.447 43.7706 203.542C54.2396 211.103 113.855 241.638 113.564 247.454C113.274 253.27 109.518 263.106 77.2378 258.744C51.7216 255.295 32.4737 233.557 25.528 224.599Z" fill="white"/>
</mask>
<g mask="url(#mask48_0_2132)">
<path d="M32.7852 242.138C110.882 271.07 79.2363 232.283 94.3263 232.972C109.416 233.66 125.24 263.457 125.24 263.457L84.9964 276.438" fill="#EBE1E3"/>
</g>
</g>
<path d="M93.9828 174.864C92.1382 175.798 90.2814 176.707 88.4122 177.592C86.5522 178.471 84.6806 179.326 82.7974 180.155C81.7254 180.627 80.6498 181.091 79.5706 181.546L79.9765 181.375C78.2498 182.103 76.5143 182.811 74.7702 183.497C74.3516 183.632 73.9928 183.908 73.7548 184.278C73.5273 184.667 73.4637 185.131 73.578 185.567C73.6923 186.003 73.9752 186.375 74.3644 186.603C74.7439 186.803 75.256 186.938 75.6736 186.774C78.4072 185.698 81.1203 184.572 83.8129 183.396C86.3801 182.276 88.9262 181.108 91.4511 179.894C92.874 179.21 94.2896 178.511 95.698 177.798C96.288 177.453 96.614 176.788 96.5254 176.11C96.4368 175.433 95.9509 174.874 95.2921 174.692C94.8494 174.588 94.3838 174.649 93.9829 174.864L93.9828 174.864Z" fill="#160C08"/>
<path d="M38.0168 282.175L42.9552 288.833L44.35 290.714C44.588 291.084 44.9469 291.36 45.3655 291.495C45.8074 291.612 46.2779 291.551 46.6747 291.323C47.0563 291.098 47.3361 290.735 47.4555 290.308C47.5505 289.89 47.5511 289.359 47.2842 288.999L42.3458 282.341L40.951 280.46C40.713 280.09 40.3542 279.815 39.9356 279.68C39.4936 279.562 39.0232 279.624 38.6263 279.851C38.2447 280.076 37.9649 280.44 37.8456 280.866C37.7505 281.284 37.7499 281.816 38.0168 282.175H38.0168Z" fill="#160C08"/>
<path d="M310.603 95.1042C290.254 109.703 279.417 136.155 318.649 115.758C357.881 95.3606 384.419 38.5543 359.426 64.7304C334.432 90.9066 326.907 83.4082 310.603 95.1042Z" fill="#EDB9C5"/>
</svg>
