<svg width="533" height="303" viewBox="0 0 533 303" fill="none" xmlns="http://www.w3.org/2000/svg">
<path d="M250.595 131.696C254.258 130.482 257.731 129.227 260.625 128.14C257.036 109.722 251.831 95.2044 245.388 83.3667C236.276 82.6709 219.87 84.8501 219.87 84.8501L239.778 74.153C221.403 47.1054 195.416 35.779 168.312 19.1041C163.704 30.2618 161.104 41.1738 160.136 51.7732C163.209 55.3312 165.585 59.6888 173.174 60.6192L159.699 62.0961C159.813 79.984 164.425 96.8736 171.672 112.414L191.314 116.586L175.501 120.062C185.564 138.859 199.233 155.466 212.898 169.203C217.791 170.08 222.445 170.732 224.523 170.504L218.174 174.37C242.848 197.92 265.969 211.735 265.969 211.735C266.786 179.703 265.147 154.039 261.543 133.152C255.742 132.329 250.595 131.696 250.595 131.696Z" fill="#019995"/>
<mask id="mask0_0_458" style="mask-type:luminance" maskUnits="userSpaceOnUse" x="159" y="19" width="108" height="193">
<path fill-rule="evenodd" clip-rule="evenodd" d="M250.596 131.696C254.258 130.482 257.731 129.227 260.625 128.14C257.036 109.722 251.831 95.2044 245.388 83.3668C236.276 82.671 219.87 84.8502 219.87 84.8502L239.778 74.1531C221.403 47.1055 195.417 35.7791 168.312 19.1042C163.704 30.2619 161.104 41.1739 160.136 51.7733C163.21 55.3312 165.585 59.6889 173.174 60.6193L159.7 62.0962C159.813 79.984 164.425 96.8737 171.673 112.414L191.314 116.586L175.502 120.062C185.564 138.859 199.233 155.466 212.898 169.203C217.792 170.08 222.445 170.732 224.523 170.504L218.174 174.37C242.848 197.92 265.969 211.735 265.969 211.735C266.786 179.703 265.147 154.039 261.543 133.152C255.742 132.329 250.596 131.696 250.596 131.696Z" fill="white"/>
</mask>
<g mask="url(#mask0_0_458)">
<path d="M177.925 34.0638C213.364 75.2236 272.704 225.114 272.704 225.114" stroke="#00757D" stroke-width="1.33267"/>
<path d="M169.006 74.4911C184.846 86.0906 211.089 87.7669 211.089 87.7669" stroke="#00757D" stroke-width="1.33267"/>
<path d="M246.211 94.2646C240.158 106.169 226.115 118.082 226.115 118.082" stroke="#A3B239" stroke-width="1.33267"/>
<path d="M191.779 124.091C212.027 134.465 234.576 136.182 234.576 136.182" stroke="#A3B239" stroke-width="1.33267"/>
<path d="M259.984 151.797C255.934 156.085 246.073 161.776 246.073 161.776" stroke="#A3B239" stroke-width="1.33267"/>
<path d="M207.868 23.317C241.689 68.3319 163.89 142.537 176.975 183.609C190.061 224.681 216.526 168.543 245.184 197.337C273.841 226.131 291.35 188.394 291.35 188.394L260.326 47.1449" fill="#00757D"/>
</g>
<path d="M276.439 50.7902C311.356 8.05536 276.589 -8.3844 267.528 4.20769C259.843 14.8872 281.849 32.5173 275.076 49.7788L276.439 50.7902Z" fill="#86D39B"/>
<mask id="mask1_0_458" style="mask-type:luminance" maskUnits="userSpaceOnUse" x="265" y="0" width="27" height="51">
<path fill-rule="evenodd" clip-rule="evenodd" d="M276.439 50.7902C311.356 8.05536 276.589 -8.3844 267.528 4.20769C259.843 14.8872 281.849 32.5173 275.076 49.7788L276.439 50.7902Z" fill="white"/>
</mask>
<g mask="url(#mask1_0_458)">
<path d="M270.816 56.3753C276.439 50.7902 295.974 19.5836 269.487 2.2002" stroke="#2CAA7E" stroke-width="1.014"/>
<path d="M299.158 8.06696C279.958 13.2339 282.098 18.6958 282.098 18.6958" stroke="#2CAA7E" stroke-width="1.014"/>
<path d="M282.006 34.5412C276.44 22.4861 266.782 20.4942 266.782 20.4942" stroke="#2CAA7E" stroke-width="1.014"/>
<path d="M291.435 22.7803C289.859 36.4361 251.263 57.9081 282.238 47.3566C313.214 36.8051 297.973 20.7867 297.973 20.7867" fill="#2CAA7E"/>
</g>
<path d="M254.921 191.91C251.269 186.61 248.401 180.809 246.406 174.689C245.901 173.212 245.5 171.719 245.085 170.229C244.728 168.73 244.348 167.235 244.075 165.727C243.481 162.727 243.058 159.696 242.809 156.648C241.778 144.485 243.107 132.207 245.797 120.036C248.508 107.858 252.624 95.7672 257.696 83.8136C260.237 77.8364 263.029 71.8952 266.071 65.9898C269.121 60.0835 272.357 54.2279 276.029 48.4101L278.519 48.946C275.026 54.6964 271.912 60.5715 269.012 66.4527C266.117 72.3407 263.469 78.2623 261.067 84.2174C256.283 96.1202 252.46 108.136 250.041 120.185C247.64 132.226 246.603 144.323 247.873 156.192C248.181 159.162 248.659 162.111 249.302 165.026C249.6 166.491 250.002 167.938 250.38 169.388C250.815 170.828 251.235 172.271 251.756 173.693C253.806 179.559 256.683 185.101 260.301 190.152L254.921 191.91Z" fill="#2CAA7E"/>
<path d="M265.53 68.5321C285.826 19.6924 338.99 16.8636 331.854 30.8481C325.802 42.7085 283.166 50.801 268.07 68.1011L265.53 68.5321Z" fill="#86D39B"/>
<mask id="mask2_0_458" style="mask-type:luminance" maskUnits="userSpaceOnUse" x="265" y="23" width="68" height="46">
<path fill-rule="evenodd" clip-rule="evenodd" d="M265.53 68.5321C285.826 19.6924 338.99 16.8636 331.854 30.8481C325.802 42.7085 283.166 50.801 268.07 68.1011L265.53 68.5321Z" fill="white"/>
</mask>
<g mask="url(#mask2_0_458)">
<path d="M263.874 75.2656C265.53 68.5321 285.962 34.8417 332.508 28.4482" stroke="#2CAA7E" stroke-width="1.014"/>
<path d="M297.29 23.7415C308.931 34.606 300.124 38.662 300.124 38.662" stroke="#2CAA7E" stroke-width="1.014"/>
<path d="M280.501 52.5144C300.733 43.8415 312.299 45.3018 312.299 45.3018" stroke="#2CAA7E" stroke-width="1.014"/>
<path d="M273.752 49.8738C269.103 62.1065 274.454 60.4484 269.207 66.8725C263.961 73.2965 258.773 55.6053 258.773 55.6053L263.152 51.6198" fill="#2CAA7E"/>
</g>
<path d="M255.628 90.7015C280.52 47.9539 337.636 43.4636 329.09 55.755C321.843 66.1795 275.661 74.7842 258.377 90.2327L255.628 90.7015Z" fill="#86D39B"/>
<mask id="mask3_0_458" style="mask-type:luminance" maskUnits="userSpaceOnUse" x="255" y="49" width="75" height="42">
<path fill-rule="evenodd" clip-rule="evenodd" d="M255.628 90.7015C280.52 47.9539 337.636 43.4636 329.09 55.755C321.843 66.1795 275.661 74.7842 258.377 90.2327L255.628 90.7015Z" fill="white"/>
</mask>
<g mask="url(#mask3_0_458)">
<path d="M253.419 96.5507C255.628 90.7014 279.686 60.9643 329.945 53.6677" stroke="#2CAA7E" stroke-width="1.014"/>
<path d="M292.535 50.9885C304.299 59.8718 294.605 63.6978 294.605 63.6978" stroke="#2CAA7E" stroke-width="1.014"/>
<path d="M272.696 76.3595C294.923 68.1242 307.214 68.9308 307.214 68.9308" stroke="#2CAA7E" stroke-width="1.014"/>
<path d="M262.636 78.8599C260.283 86.1919 260.207 89.6521 258.714 92.0372C257.22 94.4223 253.28 91.7145 253.28 91.7145L255.149 87.3359" fill="#2CAA7E"/>
</g>
<path d="M244.621 137.552C274.549 97.403 337.804 91.3943 327.668 102.984C319.071 112.814 267.637 122.248 247.68 137.03L244.621 137.552Z" fill="#86D39B"/>
<mask id="mask4_0_458" style="mask-type:luminance" maskUnits="userSpaceOnUse" x="244" y="97" width="85" height="41">
<path fill-rule="evenodd" clip-rule="evenodd" d="M244.621 137.552C274.549 97.403 337.804 91.3943 327.668 102.984C319.071 112.814 267.638 122.248 247.68 137.03L244.621 137.552Z" fill="white"/>
</mask>
<g mask="url(#mask4_0_458)">
<path d="M241.846 143.006C244.621 137.552 272.877 109.401 328.731 101.036" stroke="#2CAA7E" stroke-width="1.014"/>
<path d="M287.625 99.8001C300.086 107.587 289.173 111.426 289.173 111.426" stroke="#2CAA7E" stroke-width="1.014"/>
<path d="M264.276 123.795C289.268 115.488 302.777 115.826 302.777 115.826" stroke="#2CAA7E" stroke-width="1.014"/>
<path d="M254.21 123.983C247.508 135.208 255.776 134.018 250.696 139.163C245.615 144.307 242.622 139.4 242.622 139.4L248.273 131.035" fill="#2CAA7E"/>
</g>
<path d="M244.918 140.143C253.103 93.3126 203.682 78.6124 200.594 91.9846C197.771 104.215 238.691 121.019 243.08 140.455L244.918 140.143Z" fill="#86D39B"/>
<mask id="mask5_0_458" style="mask-type:luminance" maskUnits="userSpaceOnUse" x="200" y="87" width="46" height="54">
<path fill-rule="evenodd" clip-rule="evenodd" d="M244.918 140.143C253.103 93.3127 203.682 78.6124 200.594 91.9847C197.77 104.215 238.691 121.019 243.079 140.455L244.918 140.143Z" fill="white"/>
</mask>
<g mask="url(#mask5_0_458)">
<path d="M242.412 147.64C244.918 140.143 244.973 105.262 201.788 89.7548" stroke="#2CAA7E" stroke-width="1.014"/>
<path d="M240.818 94.0081C222.7 100.474 229.428 106.979 229.428 106.979" stroke="#2CAA7E" stroke-width="1.014"/>
<path d="M239.816 122.016C224.883 110.383 211.282 109.512 211.282 109.512" stroke="#2CAA7E" stroke-width="1.014"/>
<path d="M227.018 125.306C244.621 137.552 246.564 129.8 251.52 141.929C256.476 154.059 232.184 148.409 232.184 148.409" fill="#2CAA7E"/>
</g>
<path d="M253.103 109.152C269.745 64.1321 226.678 42.2621 220.463 54.7455C214.596 66.5315 250.927 87.9355 251.058 108.16L253.103 109.152Z" fill="#86D39B"/>
<mask id="mask6_0_458" style="mask-type:luminance" maskUnits="userSpaceOnUse" x="219" y="51" width="38" height="59">
<path fill-rule="evenodd" clip-rule="evenodd" d="M253.103 109.152C269.745 64.1321 226.678 42.2621 220.463 54.7455C214.596 66.5315 250.927 87.9355 251.058 108.16L253.103 109.152Z" fill="white"/>
</mask>
<g mask="url(#mask6_0_458)">
<path d="M249.109 116.712C253.103 109.152 260.164 74.3594 222.192 52.7487" stroke="#2CAA7E" stroke-width="1.014"/>
<path d="M258.552 62.9924C240.237 66.5514 245.28 73.9042 245.28 73.9042" stroke="#2CAA7E" stroke-width="1.014"/>
<path d="M252.002 90.1795C240.18 76.6506 227 73.8828 227 73.8828" stroke="#2CAA7E" stroke-width="1.014"/>
<path d="M238.701 87.8335C249.006 99.4366 257.862 95.2742 259.215 102.735C260.567 110.196 254.176 114.038 254.176 114.038C254.176 114.038 233.547 102.595 234.282 102.864" fill="#2CAA7E"/>
</g>
<path d="M244.804 164.701C258.843 123.174 299.446 121.586 294.412 133.456C290.144 143.523 257.759 149.786 246.735 164.372L244.804 164.701Z" fill="#86D39B"/>
<mask id="mask7_0_458" style="mask-type:luminance" maskUnits="userSpaceOnUse" x="244" y="127" width="51" height="38">
<path fill-rule="evenodd" clip-rule="evenodd" d="M244.804 164.701C258.843 123.174 299.446 121.586 294.412 133.456C290.144 143.523 257.759 149.786 246.735 164.372L244.804 164.701Z" fill="white"/>
</mask>
<g mask="url(#mask7_0_458)">
<path d="M243.742 170.445C244.804 164.701 259.41 136.156 294.839 131.41" stroke="#2CAA7E" stroke-width="1.014"/>
<path d="M267.741 126.823C276.983 136.315 270.366 139.652 270.366 139.652" stroke="#2CAA7E" stroke-width="1.014"/>
<path d="M255.772 151.213C270.991 144.1 279.888 145.533 279.888 145.533" stroke="#2CAA7E" stroke-width="1.014"/>
<path d="M252.877 146.481C248.448 160.537 254.459 158.043 252.419 163.716C250.38 169.388 241.699 162.258 241.699 162.258L246.44 150.587" fill="#2CAA7E"/>
</g>
<path d="M264.729 75.5889C282.488 34.4609 246.331 24.9908 242.194 36.9569C238.686 47.1055 263.874 59.548 263.246 75.2496L264.729 75.5889Z" fill="#86D39B"/>
<mask id="mask8_0_458" style="mask-type:luminance" maskUnits="userSpaceOnUse" x="241" y="32" width="29" height="44">
<path fill-rule="evenodd" clip-rule="evenodd" d="M264.729 75.5889C282.488 34.4608 246.331 24.9907 242.194 36.9568C238.686 47.1054 263.874 59.548 263.246 75.2495L264.729 75.5889Z" fill="white"/>
</mask>
<g mask="url(#mask8_0_458)">
<path d="M261.515 81.4575C264.781 75.9509 272.425 46.6586 243.313 34.9852" stroke="#2CAA7E" stroke-width="1.014"/>
<path d="M271.651 36.3486C256.129 43.1826 259.755 47.6187 259.755 47.6187" stroke="#2CAA7E" stroke-width="1.014"/>
<path d="M264.649 61.2708C255.893 51.5846 246.643 51.07 246.643 51.07" stroke="#2CAA7E" stroke-width="1.014"/>
</g>
<path d="M250.139 182.603C268.695 145.872 313.614 142.789 307.185 153.33C301.732 162.271 265.536 169.079 252.295 182.236L250.139 182.603Z" fill="#86D39B"/>
<mask id="mask9_0_458" style="mask-type:luminance" maskUnits="userSpaceOnUse" x="250" y="148" width="58" height="35">
<path fill-rule="evenodd" clip-rule="evenodd" d="M250.139 182.603C268.695 145.872 313.614 142.789 307.185 153.33C301.732 162.271 265.536 169.079 252.295 182.236L250.139 182.603Z" fill="white"/>
</mask>
<g mask="url(#mask9_0_458)">
<path d="M248.544 187.646C250.14 182.603 268.363 157.147 307.807 151.532" stroke="#2CAA7E" stroke-width="1.014"/>
<path d="M278.244 148.676C287.741 156.549 280.194 159.731 280.194 159.731" stroke="#2CAA7E" stroke-width="1.014"/>
<path d="M263.238 170.404C280.556 163.575 290.267 164.45 290.267 164.45" stroke="#2CAA7E" stroke-width="1.014"/>
<path d="M259.446 166.133C255.436 175.853 261.505 177.422 258.291 181.22C255.078 185.019 250.139 182.603 250.139 182.603L252.998 169.781" fill="#2CAA7E"/>
</g>
<path d="M255.078 185.019C239.173 136.294 191.131 151.412 196.885 164.906C201.765 176.352 239.997 170.873 252.797 185.404L255.078 185.019Z" fill="#86D39B"/>
<mask id="mask10_0_458" style="mask-type:luminance" maskUnits="userSpaceOnUse" x="196" y="151" width="60" height="35">
<path fill-rule="evenodd" clip-rule="evenodd" d="M255.078 185.019C239.173 136.294 191.131 151.412 196.885 164.906C201.765 176.352 239.997 170.873 252.797 185.404L255.078 185.019Z" fill="white"/>
</mask>
<g mask="url(#mask10_0_458)">
<path d="M256.236 192.131C255.078 185.019 238.277 153.627 196.415 162.394" stroke="#2CAA7E" stroke-width="1.014"/>
<path d="M228.576 144.87C217.471 161.284 225.246 162.873 225.246 162.873" stroke="#2CAA7E" stroke-width="1.014"/>
<path d="M242.325 171.908C224.43 168.994 213.873 174.651 213.873 174.651" stroke="#2CAA7E" stroke-width="1.014"/>
<path d="M242.019 180.88C250.1 183.722 255.32 181.523 261.732 189.868L250.679 189.139" fill="#2CAA7E"/>
</g>
<path d="M246.88 115.276C267.13 76.7386 315.407 73.2896 308.409 84.3551C302.474 93.74 263.536 101.045 249.199 114.881L246.88 115.276Z" fill="#86D39B"/>
<mask id="mask11_0_458" style="mask-type:luminance" maskUnits="userSpaceOnUse" x="246" y="78" width="64" height="38">
<path fill-rule="evenodd" clip-rule="evenodd" d="M246.88 115.276C267.13 76.7386 315.407 73.2896 308.409 84.3551C302.474 93.74 263.536 101.045 249.199 114.881L246.88 115.276Z" fill="white"/>
</mask>
<g mask="url(#mask11_0_458)">
<path d="M245.123 120.562C246.88 115.276 266.676 88.5418 309.093 82.4695" stroke="#2CAA7E" stroke-width="1.014"/>
<path d="M277.363 79.6259C287.496 87.8205 279.362 91.1876 279.362 91.1876" stroke="#2CAA7E" stroke-width="1.014"/>
<path d="M261.055 102.443C279.717 95.2099 290.14 96.0771 290.14 96.0771" stroke="#2CAA7E" stroke-width="1.014"/>
</g>
<path d="M247.467 166.296C245.982 117.127 187.163 104.739 189.084 119.061C190.714 131.207 235.328 146.561 244.787 165.429L247.467 166.296Z" fill="#86D39B"/>
<mask id="mask12_0_458" style="mask-type:luminance" maskUnits="userSpaceOnUse" x="189" y="113" width="59" height="54">
<path fill-rule="evenodd" clip-rule="evenodd" d="M247.467 166.296C245.982 117.126 187.163 104.739 189.084 119.06C190.714 131.207 235.328 146.561 244.787 165.429L247.467 166.296Z" fill="white"/>
</mask>
<g mask="url(#mask12_0_458)">
<path d="M246.382 172.866C247.467 166.296 239.177 131.198 189.4 116.708" stroke="#2CAA7E" stroke-width="1.014"/>
<path d="M231.253 118.79C213.332 126.764 221.501 132.154 221.501 132.154" stroke="#2CAA7E" stroke-width="1.014"/>
<path d="M237.586 148.644C218.538 136.862 204.831 136.098 204.831 136.098" stroke="#2CAA7E" stroke-width="1.014"/>
<path d="M230.251 151.756C239.554 151.681 252.805 165.622 252.714 168.126C252.623 170.631 239.519 166.696 239.519 166.696L233.557 157.227" fill="#2CAA7E"/>
</g>
<path d="M240.288 212.921C412.303 -145.752 460.883 66.2021 281.069 217.265L240.288 212.921Z" fill="#019995"/>
<mask id="mask13_0_458" style="mask-type:luminance" maskUnits="userSpaceOnUse" x="240" y="15" width="155" height="203">
<path fill-rule="evenodd" clip-rule="evenodd" d="M240.288 212.922C412.303 -145.752 460.883 66.2022 281.07 217.265L240.288 212.922Z" fill="white"/>
</mask>
<g mask="url(#mask13_0_458)">
<path d="M219.1 247.579C308.959 191.61 378.329 47.1898 388.387 3.6402" stroke="#00757D" stroke-width="1.33267"/>
<path d="M231.882 238.935C281.069 217.265 386.272 90.0427 403.541 13.953" stroke="#00757D" stroke-width="1.33267"/>
<path d="M355.849 0.174805C357.049 79.567 241.48 229.113 241.48 229.113" stroke="#00757D" stroke-width="1.33267"/>
<path d="M245.184 197.337C263.945 134.861 360.301 95.9936 378.365 108.466C396.429 120.938 337.942 190.729 337.942 190.729L295.563 213.123" fill="#00757D"/>
</g>
<path d="M302.683 195.01C303.765 197.554 308.484 199.759 314.123 201.545C315.223 201.079 316.322 200.603 317.419 200.115L351.273 181.759C355.695 178.976 360.038 176.108 364.287 173.201C362.092 169.523 357.927 166.319 357.927 166.319C361.768 166.738 365.323 168.695 367.999 170.635C379.62 162.522 390.478 154.213 400.218 146.672C399.236 141.186 394.233 136.033 394.233 136.033C394.233 136.033 400.321 135.192 407.085 141.349C421.455 130.215 432.881 121.54 440.009 119.038C423.104 116.477 406.573 115.379 390.726 115.746C391.765 121.591 388.035 124.916 388.035 124.916C388.035 124.916 386.824 120.234 384.059 115.988C374.529 116.447 365.038 117.517 355.645 119.192L341.963 124.431C342.565 125.64 342.808 126.812 342.504 127.867C342.504 127.867 341.363 126.849 338.637 125.704L295.644 142.168C294.85 142.694 294.063 143.228 293.284 143.77C296.694 146.071 300.518 149.589 299.797 153.488C299.797 153.488 292.743 150.494 286.012 149.234C267.125 164.588 253.548 185.258 247.369 211.364C264.837 214.834 282.915 212.454 300.741 206.591L302.683 195.01Z" fill="#B8CA55"/>
<mask id="mask14_0_458" style="mask-type:luminance" maskUnits="userSpaceOnUse" x="247" y="115" width="194" height="98">
<path fill-rule="evenodd" clip-rule="evenodd" d="M302.683 195.01C303.765 197.554 308.484 199.758 314.123 201.545C315.223 201.079 316.322 200.602 317.419 200.115L351.273 181.759C355.695 178.975 360.038 176.108 364.287 173.201C362.092 169.523 357.927 166.319 357.927 166.319C361.768 166.738 365.323 168.694 367.999 170.634C379.62 162.522 390.478 154.212 400.218 146.672C399.236 141.186 394.233 136.032 394.233 136.032C394.233 136.032 400.321 135.192 407.085 141.349C421.455 130.215 432.881 121.539 440.009 119.038C423.104 116.477 406.573 115.379 390.726 115.746C391.765 121.591 388.035 124.915 388.035 124.915C388.035 124.915 386.824 120.234 384.059 115.988C374.529 116.447 365.038 117.517 355.645 119.192L341.963 124.431C342.565 125.64 342.808 126.812 342.504 127.867C342.504 127.867 341.363 126.849 338.637 125.704L295.644 142.167C294.85 142.694 294.063 143.228 293.284 143.77C296.694 146.071 300.518 149.588 299.797 153.488C299.797 153.488 292.743 150.494 286.012 149.234C267.125 164.588 253.548 185.258 247.369 211.364C264.837 214.834 282.915 212.453 300.741 206.591L302.683 195.01Z" fill="white"/>
</mask>
<g mask="url(#mask14_0_458)">
<path d="M207.353 240.959C216.454 232.581 235.356 231.431 247.369 211.364C259.383 191.296 364.732 133.093 406.744 127.522" stroke="#A3B239" stroke-width="1.33267"/>
<path d="M366.382 126.4C349.615 134.942 349.161 147.395 349.161 147.395" stroke="#A3B239" stroke-width="1.33267"/>
<path d="M372.999 157.574C358.766 160.442 329.189 157.033 329.189 157.033" stroke="#A3B239" stroke-width="1.33267"/>
<path d="M293.414 160.779C287.385 169.275 290.87 178.163 290.87 178.163" stroke="#A3B239" stroke-width="1.33267"/>
<path d="M289.048 195.541L270.539 191.195" stroke="#A3B239" stroke-width="1.33267"/>
<path d="M365.491 192.907C378.396 165.57 281.096 195.884 247.065 212.08C213.034 228.276 311.458 254.801 311.458 254.801L372.982 222.124" fill="#A3B239"/>
</g>
<path d="M270.477 13.6797L271.605 14.8252C272.242 15.4283 273.239 15.4283 273.876 14.8252L274.127 14.5001C274.271 14.2542 274.347 13.9743 274.346 13.6894L274.289 13.2624C274.215 12.9944 274.073 12.7501 273.876 12.5536L272.748 11.4081C272.111 10.805 271.114 10.805 270.477 11.4081L270.226 11.7332C270.082 11.9791 270.006 12.2589 270.006 12.5439L270.064 12.9709C270.138 13.2389 270.28 13.4832 270.477 13.6797Z" fill="#2CAA7E"/>
<path d="M312.25 37.4475C312.675 37.4421 313.081 37.2737 313.386 36.9771C313.845 36.5177 313.982 35.8269 313.734 35.2268C313.485 34.6266 312.9 34.2353 312.25 34.2352C311.825 34.2406 311.418 34.409 311.114 34.7057C310.655 35.165 310.518 35.8558 310.766 36.456C311.015 37.0562 311.6 37.4475 312.25 37.4475Z" fill="#2CAA7E"/>
<path d="M310.732 63.4331C311.157 63.4277 311.564 63.2593 311.868 62.9626C312.327 62.5033 312.465 61.8125 312.216 61.2123C311.967 60.6121 311.382 60.2208 310.732 60.2208C310.307 60.2262 309.901 60.3946 309.596 60.6912C309.137 61.1506 309 61.8414 309.248 62.4416C309.497 63.0417 310.083 63.4331 310.732 63.4331Z" fill="#2CAA7E"/>
<path d="M233.829 70.274L234.957 71.4195C235.594 72.0227 236.591 72.0227 237.228 71.4195L237.479 71.0945C237.624 70.8486 237.699 70.5687 237.699 70.2838L237.641 69.8568C237.567 69.5887 237.425 69.3445 237.228 69.148L236.101 68.0025C235.464 67.3993 234.466 67.3993 233.829 68.0025L233.578 68.3276C233.434 68.5734 233.358 68.8533 233.359 69.1383L233.416 69.5652C233.49 69.8333 233.632 70.0775 233.829 70.274Z" fill="#2CAA7E"/>
<path d="M236.117 115.877L236.637 116.954C236.956 117.521 237.595 117.827 238.237 117.721C238.449 117.712 238.656 117.646 238.834 117.53L239.159 117.279C239.356 117.083 239.498 116.839 239.572 116.57L239.63 116.143C239.63 115.859 239.554 115.579 239.41 115.333L238.891 114.256C238.571 113.689 237.932 113.383 237.29 113.489C237.078 113.498 236.872 113.564 236.693 113.68L236.368 113.931C236.171 114.127 236.029 114.372 235.955 114.64L235.898 115.067C235.897 115.352 235.973 115.632 236.117 115.877Z" fill="#2CAA7E"/>
<path d="M213.891 166.822C214.877 167.261 215.908 167.592 216.964 167.811C218.036 168.025 219.126 168.127 220.219 168.114C220.644 168.108 221.05 167.939 221.355 167.644C221.653 167.341 221.822 166.934 221.825 166.508C221.787 165.65 221.119 164.886 220.219 164.902C219.525 164.914 218.832 164.873 218.144 164.781L218.571 164.838C217.432 164.682 216.317 164.38 215.254 163.94L215.638 164.102C215.596 164.084 215.554 164.066 215.513 164.048C215.334 163.933 215.128 163.867 214.916 163.858C214.703 163.81 214.482 163.82 214.275 163.887C213.873 164.001 213.529 164.265 213.315 164.625C213.098 164.999 213.04 165.445 213.153 165.862C213.273 166.232 213.518 166.662 213.891 166.822L213.891 166.822Z" fill="#2CAA7E"/>
<path d="M372.786 131.471C373.309 131.471 373.81 131.011 373.785 130.471C373.776 129.923 373.334 129.481 372.786 129.472C372.263 129.472 371.762 129.932 371.786 130.471C371.796 131.019 372.238 131.462 372.786 131.471Z" fill="#A3B239"/>
<path d="M333.599 170.955L338.594 170.935C339.117 170.933 339.618 170.477 339.594 169.936C339.585 169.388 339.142 168.946 338.594 168.936L333.599 168.956C333.076 168.958 332.575 169.414 332.6 169.955C332.609 170.504 333.051 170.946 333.599 170.955Z" fill="#A3B239"/>
<path d="M325.839 146.079L321.321 153.288C321.048 153.766 321.208 154.374 321.68 154.656C322.158 154.923 322.762 154.764 323.048 154.297L327.565 147.088C327.838 146.611 327.679 146.002 327.206 145.72C326.728 145.454 326.124 145.612 325.839 146.079Z" fill="#A3B239"/>
<path d="M290.492 188.331L294.199 188.725C294.464 188.725 294.719 188.62 294.906 188.433C295.092 188.244 295.197 187.991 295.199 187.726C295.172 187.137 294.758 186.786 294.199 186.726L290.492 186.332C290.227 186.331 289.973 186.437 289.785 186.624C289.599 186.813 289.494 187.066 289.492 187.331C289.519 187.92 289.933 188.271 290.492 188.331Z" fill="#A3B239"/>
<path d="M362.701 55.2731L360.685 56.5965C360.464 56.7325 360.301 56.9451 360.226 57.1939C360.157 57.4538 360.193 57.7306 360.327 57.964C360.46 58.193 360.68 58.3594 360.936 58.4266C361.193 58.4939 361.465 58.4565 361.694 58.3226L363.71 56.9992C363.931 56.8633 364.095 56.6507 364.169 56.4019C364.238 56.1419 364.202 55.8651 364.068 55.6317C363.935 55.4028 363.716 55.2363 363.459 55.1691C363.203 55.1018 362.93 55.1393 362.701 55.2731H362.701Z" fill="#00757D"/>
<path d="M200.66 53.7904L201.007 56.3909C201.018 56.6537 201.122 56.9041 201.3 57.0977C201.691 57.488 202.323 57.488 202.714 57.0977C202.879 56.9175 203.041 56.6459 203.006 56.3909L202.659 53.7904C202.648 53.5276 202.544 53.2772 202.366 53.0836C201.976 52.6933 201.343 52.6933 200.953 53.0836C200.787 53.2638 200.626 53.5354 200.66 53.7904Z" fill="#00757D"/>
<path d="M186.156 65.8822L192.521 70.6616C192.754 70.7972 193.032 70.8335 193.292 70.7624C193.542 70.6912 193.756 70.5269 193.889 70.3031C194.024 70.0701 194.06 69.7928 193.99 69.5329C193.907 69.2885 193.745 69.0784 193.53 68.9356L187.165 64.1562C186.933 64.0206 186.655 63.9843 186.395 64.0554C186.145 64.1266 185.931 64.291 185.798 64.5147C185.663 64.7477 185.627 65.025 185.697 65.2849C185.78 65.5293 185.942 65.7394 186.156 65.8823V65.8822Z" fill="#00757D"/>
<path d="M189.918 105.843L190.536 105.909C191.082 105.894 191.521 105.455 191.536 104.909L191.5 104.643C191.454 104.477 191.366 104.325 191.243 104.202L191.041 104.046C190.888 103.956 190.714 103.909 190.536 103.91L189.918 103.844C189.373 103.858 188.933 104.297 188.919 104.843L188.955 105.109C189.001 105.276 189.089 105.428 189.212 105.55L189.414 105.706C189.567 105.796 189.741 105.843 189.918 105.843L189.918 105.843Z" fill="#00757D"/>
<path d="M84.7542 114.631C83.3292 113.455 49.9518 85.4989 60.9075 61.9041L62.4452 62.6199C52.0462 85.025 85.4966 113.044 85.8412 113.326L84.7542 114.631Z" fill="#F7F0F0"/>
<path d="M56.4841 62.2608C56.6413 68.8998 66.5489 69.0568 66.8732 62.2603C66.716 55.6218 56.8085 55.4648 56.4841 62.2608Z" fill="#F7F0F0"/>
<path d="M84.5553 113.037C82.852 112.312 42.913 94.9733 46.7174 69.2377L48.4008 69.4862C45.8433 98.7794 89.5886 110.054 84.5553 113.037Z" fill="#F7F0F0"/>
<path d="M42.581 70.8362C44.6152 77.1578 54.1602 74.4976 52.5431 67.8883C50.509 61.5672 40.964 64.2274 42.581 70.8362Z" fill="#F7F0F0"/>
<path d="M123.916 60.8894C113.409 40.4822 92.846 21.1585 78.9939 26.784C65.1417 32.4094 85.3659 112.752 97.2787 121.894C109.192 131.037 123.916 60.8894 123.916 60.8894Z" fill="#F7F0F0"/>
<mask id="mask15_0_458" style="mask-type:luminance" maskUnits="userSpaceOnUse" x="74" y="25" width="50" height="98">
<path fill-rule="evenodd" clip-rule="evenodd" d="M123.916 60.8894C113.409 40.4822 92.8462 21.1585 78.994 26.784C65.1419 32.4094 85.366 112.752 97.2789 121.894C109.192 131.037 123.916 60.8894 123.916 60.8894Z" fill="white"/>
</mask>
<g mask="url(#mask15_0_458)">
<path d="M98.8357 22.7395C79.4841 23.9401 70.1834 105.222 93.7618 103.781C111.3 128.393 115.202 26.7386 115.202 26.7386L103.797 17.0366" fill="#E2D7D7"/>
</g>
<path d="M86.4141 123.379C86.4643 123.408 106.78 145.307 110.045 148.802C110.354 150.322 117.486 152.21 117.03 145.795C117.479 144.091 95.5934 122.586 92.3156 118.435C91.1855 115.647 82.6224 117.139 86.4141 123.379Z" fill="#FFCCCC"/>
<mask id="mask16_0_458" style="mask-type:luminance" maskUnits="userSpaceOnUse" x="85" y="117" width="33" height="34">
<path fill-rule="evenodd" clip-rule="evenodd" d="M86.4141 123.379C86.4643 123.408 106.78 145.307 110.045 148.802C110.354 150.322 117.486 152.21 117.03 145.795C117.479 144.091 95.5934 122.586 92.3156 118.435C91.1855 115.647 82.6224 117.139 86.4141 123.379Z" fill="white"/>
</mask>
<g mask="url(#mask16_0_458)">
<path d="M122.03 127.283C120.892 153.894 93.1409 152.942 91.4659 128.591C91.2405 100.279 121.502 101.197 122.03 127.283Z" fill="#E77479"/>
</g>
<path d="M81.121 112.039C75.393 117.888 83.5331 126.106 89.4752 121.026C95.2031 115.176 87.063 106.958 81.121 112.039Z" fill="#FFCCCC"/>
<path d="M113.236 146.589C108.446 151.257 115.124 158.674 120.36 154.252C125.15 149.584 118.472 142.168 113.236 146.589Z" fill="#FFCCCC"/>
<path d="M116.839 88.512C158.537 46.61 208.06 107.42 154.363 138.533C108.06 159.089 95.4628 126.701 93.8567 118.738C92.0076 119.458 114.884 91.5872 116.839 88.512Z" fill="#F7F0F0"/>
<mask id="mask17_0_458" style="mask-type:luminance" maskUnits="userSpaceOnUse" x="93" y="74" width="85" height="72">
<path fill-rule="evenodd" clip-rule="evenodd" d="M116.839 88.512C158.537 46.6099 208.06 107.42 154.363 138.533C108.06 159.088 95.4628 126.701 93.8567 118.738C92.0076 119.458 114.884 91.5871 116.839 88.512Z" fill="white"/>
</mask>
<g mask="url(#mask17_0_458)">
<path d="M98.8354 116.334C101.252 144.792 158.409 59.1302 158.409 59.1302L101.254 78.0587" fill="#E2D7D7"/>
<path d="M186.156 116.822C185.239 132.048 164.475 130.608 164.145 116.822C165.062 101.595 185.827 103.036 186.156 116.822Z" fill="#FFCCCC"/>
<path d="M165.346 74.6508C164.428 89.8774 143.664 88.4365 143.334 74.6506C144.252 59.4243 165.016 60.8652 165.346 74.6508Z" fill="#FFCCCC"/>
<path d="M144.031 111.868C143.377 123.299 127.656 122.321 127.354 111.867C128.008 100.437 143.73 101.414 144.031 111.868Z" fill="#FFCCCC"/>
</g>
<path d="M93.9542 119.124C89.2445 98.6227 75.4928 31.5244 98.3869 26.8686C115.897 23.3076 173.332 87.3547 93.9542 119.124Z" fill="#F7F0F0"/>
<mask id="mask18_0_458" style="mask-type:luminance" maskUnits="userSpaceOnUse" x="85" y="26" width="50" height="94">
<path fill-rule="evenodd" clip-rule="evenodd" d="M93.9543 119.124C89.2446 98.6227 75.493 31.5244 98.387 26.8686C115.897 23.3076 173.332 87.3547 93.9543 119.124Z" fill="white"/>
</mask>
<g mask="url(#mask18_0_458)">
<path d="M136.51 52.8502C135.856 64.2813 120.134 63.3038 119.833 52.8499C120.487 41.419 136.208 42.3966 136.51 52.8502Z" fill="#FFCCCC"/>
<path d="M122.903 88.2676C122.249 99.6988 106.528 98.7212 106.226 88.2673C106.88 76.8365 122.601 77.8141 122.903 88.2676Z" fill="#FFCCCC"/>
<path d="M99.7718 52.8502C99.1177 64.2813 83.3965 63.3038 83.0946 52.8499C83.7487 41.419 99.4699 42.3966 99.7718 52.8502Z" fill="#FFCCCC"/>
</g>
<path d="M125.827 126.726C128.19 126.95 130.575 126.756 132.87 126.152C136.523 125.212 139.85 123.295 142.495 120.607C142.79 120.303 142.957 119.899 142.964 119.476C142.96 119.053 142.792 118.647 142.495 118.345C141.864 117.766 140.857 117.705 140.234 118.345C139.629 118.965 138.982 119.542 138.298 120.073L138.621 119.823C137.31 120.83 135.877 121.665 134.354 122.309L134.736 122.148C133.138 122.821 131.458 123.28 129.739 123.514L130.164 123.457C128.726 123.648 127.271 123.672 125.827 123.528C125.444 123.489 124.959 123.734 124.697 123.996C124.397 124.296 124.228 124.703 124.228 125.127C124.228 125.551 124.397 125.958 124.697 126.258C125.008 126.54 125.408 126.705 125.827 126.726L125.827 126.726Z" fill="#E2D7D7"/>
<path d="M99.8104 64.4067C98.6706 66.7304 97.8924 69.2147 97.5029 71.7734C97.3832 72.5919 97.2866 73.4125 97.2366 74.2383C97.2366 75.1214 97.9525 75.8374 98.8356 75.8374C99.7105 75.8178 100.415 75.1132 100.435 74.2383C100.47 73.6598 100.525 73.0831 100.601 72.5084L100.544 72.9334C100.828 70.8172 101.391 68.7478 102.217 66.7789L102.056 67.1609C102.218 66.7765 102.39 66.3966 102.572 66.0209C102.778 65.6449 102.836 65.2051 102.733 64.7887C102.619 64.388 102.356 64.0461 101.998 63.8331C101.625 63.617 101.182 63.559 100.766 63.6718C100.388 63.7943 99.9899 64.0353 99.8104 64.4067V64.4067Z" fill="#E2D7D7"/>
<path d="M116.309 150.107L116.609 150.407C117.243 151.008 118.236 151.008 118.87 150.407L119.121 150.083C119.264 149.839 119.339 149.56 119.339 149.276L119.282 148.851C119.208 148.584 119.066 148.341 118.87 148.146L118.57 147.845C117.936 147.245 116.943 147.245 116.309 147.845L116.059 148.169C115.916 148.414 115.84 148.692 115.841 148.976L115.898 149.401C115.971 149.668 116.113 149.911 116.309 150.107Z" fill="#FF999A"/>
<path d="M78.039 44.0864C77.5552 45.7966 77.252 47.5528 77.1344 49.3263C77.1344 49.973 77.524 50.5561 78.1215 50.8036C78.719 51.0511 79.4068 50.9143 79.8642 50.457C80.1501 50.148 80.3163 49.747 80.3325 49.3263C80.368 48.8156 80.4197 48.3066 80.4875 47.7992L80.4304 48.2243C80.5825 47.1133 80.8139 46.0146 81.1229 44.9366C81.2317 44.5206 81.1739 44.0785 80.9617 43.7044C80.6371 43.1491 80.0114 42.8422 79.3736 42.9255C78.7357 43.0089 78.2099 43.4663 78.039 44.0864H78.039Z" fill="#E2D7D7"/>
<path d="M74.4666 216.279L0 201.42C0 201.42 36.1272 284.216 169.083 299.917C302.039 315.617 388.635 210.39 388.635 210.39L74.4666 216.279Z" fill="#E2D7D7"/>
<mask id="mask19_0_458" style="mask-type:luminance" maskUnits="userSpaceOnUse" x="0" y="201" width="389" height="101">
<path fill-rule="evenodd" clip-rule="evenodd" d="M74.4666 216.279L0 201.42C0 201.42 36.1272 284.216 169.083 299.917C302.039 315.617 388.635 210.39 388.635 210.39L74.4666 216.279Z" fill="white"/>
</mask>
<g mask="url(#mask19_0_458)">
<path d="M-92.7015 244.685L6.46523 226.551C173.538 391.91 388.635 210.39 388.635 210.39L348.159 125.33C348.159 125.33 -72.2214 136.109 -76.533 136.109C-80.8447 136.109 -92.7015 244.685 -92.7015 244.685Z" fill="#F7F0F0"/>
</g>
<path d="M0 201.42C0 201.42 83.6941 274.803 226.093 263.472C368.493 252.141 369.496 197.964 423.379 205.68C477.262 213.396 478.254 240.649 532.35 214.603C532.35 214.603 527.141 220.318 504.756 205.047C482.371 189.777 468.52 191.863 468.52 191.863C496.622 186.033 483.431 159.848 478.573 152.209C478.573 152.209 485.209 174.897 449.747 175.466C427.811 175.819 435.748 187.99 411.148 190.561C386.548 193.132 285.314 206.611 214.293 181.83C115.357 147.309 23.2009 143.83 0 201.42Z" fill="#77689B"/>
<path d="M176.077 251.467C175.936 267.292 188.732 300.682 306.909 280.33C306.909 280.33 245.714 272.52 246.501 241.805" fill="#77689B"/>
<path d="M122.689 242.211C118.184 239.429 110.491 238.256 104.908 240.776C105.646 241.011 106.404 241.177 107.173 241.27C105.97 243.409 112.941 247.122 114.389 241.904C118.669 242.141 122.689 242.211 122.689 242.211Z" fill="#341E72"/>
<path d="M74.4163 197.757C74.7893 197.362 75.1923 196.996 75.6216 196.663L74.75 197.336C75.4952 196.768 76.3089 196.296 77.172 195.931L76.1431 196.366C77.3939 195.853 78.7073 195.509 80.0487 195.343L78.9038 195.497C81.3194 195.179 83.773 195.289 86.1894 195.541C86.8751 195.613 87.5595 195.697 88.2429 195.788L87.0979 195.634C87.3372 195.667 87.5764 195.7 87.8155 195.733C88.3708 195.912 88.9639 195.939 89.5329 195.81C90.1026 195.785 90.6554 195.609 91.1342 195.299C92.0718 194.696 92.7713 193.786 93.1134 192.725L93.2673 191.58C93.2685 190.816 93.0655 190.066 92.6793 189.407L92.0058 188.535C91.479 188.007 90.8241 187.626 90.1054 187.427C87.2472 187.024 84.3676 186.637 81.4742 186.695C79.8809 186.73 78.2934 186.901 76.7287 187.203C75.2255 187.513 73.7677 188.012 72.3899 188.688C71.7909 188.97 71.2187 189.306 70.6806 189.691C69.8347 190.273 69.0462 190.935 68.3255 191.666C66.7081 193.374 66.7081 196.049 68.3255 197.757L69.1972 198.43C69.8564 198.817 70.6069 199.02 71.3709 199.018L72.5159 198.865C73.2346 198.666 73.8895 198.285 74.4163 197.757V197.757Z" fill="#5E4F8E"/>
<path d="M331.112 210.684C330.449 211.259 329.77 211.815 329.076 212.353L329.948 211.679C327.587 213.504 325.06 215.102 322.4 216.452C321.647 216.834 320.885 217.195 320.113 217.536C318.594 218.392 317.772 220.107 318.057 221.827C318.081 222.397 318.258 222.95 318.568 223.429L319.241 224.3C319.768 224.828 320.423 225.209 321.142 225.408L322.286 225.562C323.05 225.563 323.801 225.36 324.46 224.974C327.839 223.481 331.032 221.598 333.974 219.363C335.073 218.528 336.16 217.679 337.203 216.775C338.82 215.067 338.82 212.392 337.203 210.684L336.331 210.011C335.672 209.625 334.922 209.422 334.158 209.423L333.013 209.577C332.294 209.775 331.639 210.157 331.112 210.684H331.112Z" fill="#5E4F8E"/>
<path d="M464.109 204.887C465.182 206.071 466.399 207.114 467.734 207.993C469.056 208.89 470.539 209.552 472.04 210.087C472.595 210.266 473.188 210.292 473.757 210.164C474.327 210.139 474.88 209.963 475.358 209.653C476.296 209.05 476.996 208.14 477.338 207.079L477.491 205.934C477.493 205.17 477.29 204.42 476.903 203.76L476.23 202.889C475.703 202.361 475.048 201.979 474.33 201.781C474.072 201.689 473.818 201.591 473.566 201.486L474.595 201.92C473.434 201.428 472.341 200.789 471.342 200.019L472.214 200.692C471.484 200.125 470.81 199.49 470.2 198.796C468.492 197.179 465.817 197.179 464.109 198.796L463.436 199.668C463.049 200.327 462.846 201.077 462.848 201.841L463.002 202.986C463.2 203.705 463.581 204.36 464.109 204.887V204.887Z" fill="#5E4F8E"/>
<path d="M215.973 276.036H219.207C221.559 275.973 223.451 274.081 223.513 271.729L223.36 270.584C223.161 269.865 222.78 269.211 222.252 268.684L221.38 268.01C220.721 267.624 219.971 267.421 219.207 267.422H215.973C213.621 267.485 211.729 269.377 211.666 271.729L211.82 272.874C212.018 273.593 212.4 274.248 212.927 274.775L213.799 275.448C214.458 275.834 215.209 276.037 215.973 276.036V276.036Z" fill="#5E4F8E"/>
<path d="M73.6557 170.959L50.6721 186.854C80.4767 192.723 77.6598 187.511 94.181 178.696L73.6557 170.959Z" fill="#F9BDA3"/>
<mask id="mask20_0_458" style="mask-type:luminance" maskUnits="userSpaceOnUse" x="50" y="170" width="45" height="20">
<path fill-rule="evenodd" clip-rule="evenodd" d="M73.6557 170.959L50.6721 186.854C80.4767 192.723 77.6598 187.511 94.181 178.696L73.6557 170.959Z" fill="white"/>
</mask>
<g mask="url(#mask20_0_458)">
<path d="M68.5985 170.959C57.1834 174.973 87.4049 184.198 87.4049 184.198C85.5403 181.601 79.4745 163.107 74.5778 164.917" fill="#EB8176"/>
</g>
<path d="M25.2945 193.259L24.7625 196.889C24.7625 196.889 67.6841 200.879 78.5374 199.66L77.3323 194.837L25.2945 193.259Z" fill="#F7F0F0"/>
<path d="M39.3738 188.505C32.5602 185.905 23.6734 191.775 25.2945 193.259C29.6753 192.429 45.574 198.083 39.3738 188.505Z" fill="#F7F0F0"/>
<path d="M77.5395 188.386C68.0694 191.48 59.1313 181.978 59.8761 178.696C59.8761 178.696 48.9129 188.515 39.3737 188.505C40.2962 190.014 41.158 192.146 40.3821 194.118L77.5395 196.232V188.386Z" fill="#685048"/>
<path d="M71.3981 170.054C68.6261 180.098 98.5293 189.347 98.5293 189.347C98.5293 189.347 140.243 169.869 149.175 157.382C149.175 157.382 178.986 191.775 219.026 191.232C259.067 190.689 243.462 151.509 243.462 151.509C243.462 151.509 173.804 117.894 149.257 117.592C130.545 117.362 71.3981 170.054 71.3981 170.054Z" fill="#009995"/>
<mask id="mask21_0_458" style="mask-type:luminance" maskUnits="userSpaceOnUse" x="71" y="117" width="176" height="75">
<path fill-rule="evenodd" clip-rule="evenodd" d="M71.3981 170.054C68.6261 180.098 98.5293 189.347 98.5293 189.347C98.5293 189.347 140.243 169.869 149.175 157.382C149.175 157.382 178.986 191.775 219.026 191.232C259.067 190.689 243.462 151.509 243.462 151.509C243.462 151.509 173.804 117.894 149.257 117.592C130.545 117.362 71.3981 170.054 71.3981 170.054Z" fill="white"/>
</mask>
<g mask="url(#mask21_0_458)">
<path d="M189.514 128.633C180.44 147.93 225.828 151.055 209.113 170.488C192.398 189.921 232.759 167.362 232.759 167.362L225.557 142.086L216.044 139.64" fill="#00757D"/>
<path d="M140.923 111.599C108.178 125.461 153.962 116.266 173.588 139.64C193.214 163.014 200.28 125.28 200.28 125.28L173.588 111.599L133.148 102.738" fill="#00757D"/>
<path d="M78.5374 158.209C68.5985 170.959 102.149 183.253 102.149 183.253" stroke="#00757D" stroke-width="1.93059" stroke-linecap="round" stroke-linejoin="round"/>
<path d="M105.937 122.073C92.4543 132.123 121.771 131.612 108.897 122.358C108.165 121.607 108.174 121.244 105.937 122.073Z" fill="#00757D"/>
<path d="M135.989 101.877C119.349 99.4492 140.44 119.818 137.881 104.171C137.894 103.122 138.157 102.872 135.989 101.877Z" fill="#00757D"/>
<path d="M85.3049 104.437C68.6649 102.009 89.7559 122.378 87.1969 106.731C87.2105 105.682 87.4729 105.432 85.3049 104.437Z" fill="#00757D"/>
<path d="M148.124 122.412C134.641 132.462 163.958 131.951 151.084 122.697C150.353 121.946 150.361 121.583 148.124 122.412Z" fill="#00757D"/>
<path d="M131.344 142.946C114.704 140.518 135.795 160.887 133.236 145.24C133.25 144.191 133.512 143.941 131.344 142.946Z" fill="#00757D"/>
<path d="M83.3903 136.427C66.7503 134 87.8414 154.368 85.2823 138.721C85.296 137.673 85.5584 137.423 83.3903 136.427Z" fill="#00757D"/>
<path d="M190.311 122.073C176.828 132.123 206.144 131.612 193.271 122.358C192.539 121.607 192.548 121.244 190.311 122.073Z" fill="#00757D"/>
<path d="M220.363 101.877C203.722 99.4492 224.814 119.818 222.254 104.171C222.268 103.122 222.531 102.872 220.363 101.877Z" fill="#00757D"/>
<path d="M169.678 104.437C153.038 102.009 174.129 122.378 171.57 106.731C171.584 105.682 171.846 105.432 169.678 104.437Z" fill="#00757D"/>
<path d="M215.718 142.946C199.078 140.518 220.169 160.887 217.61 145.24C217.623 144.191 217.886 143.941 215.718 142.946Z" fill="#00757D"/>
<path d="M167.764 136.427C151.124 134 172.215 154.368 169.656 138.721C169.67 137.673 169.932 137.423 167.764 136.427Z" fill="#00757D"/>
<path d="M125.359 181.442C111.876 191.492 141.192 190.981 128.319 181.727C127.587 180.976 127.596 180.613 125.359 181.442Z" fill="#00757D"/>
<path d="M155.41 161.246C138.77 158.818 159.861 179.187 157.302 163.54C157.316 162.491 157.578 162.241 155.41 161.246Z" fill="#00757D"/>
<path d="M104.726 163.806C88.0862 161.378 109.177 181.747 106.618 166.1C106.632 165.051 106.894 164.801 104.726 163.806Z" fill="#00757D"/>
<path d="M167.545 181.781C154.063 191.831 183.379 191.32 170.505 182.066C169.774 181.315 169.782 180.952 167.545 181.781Z" fill="#00757D"/>
<path d="M209.732 181.442C196.249 191.492 225.566 190.981 212.692 181.727C211.961 180.976 211.969 180.613 209.732 181.442Z" fill="#00757D"/>
<path d="M239.784 161.246C223.144 158.818 244.235 179.187 241.676 163.54C241.69 162.491 241.952 162.241 239.784 161.246Z" fill="#00757D"/>
<path d="M189.1 163.806C172.46 161.378 193.551 181.747 190.992 166.1C191.006 165.051 191.268 164.801 189.1 163.806Z" fill="#00757D"/>
<path d="M143.552 163.087C181.426 174.879 210.913 160.946 210.811 168.246C210.709 175.545 190.367 191.01 190.367 191.01L152.853 186.252" fill="#00757D"/>
</g>
<path d="M217.323 73.1188C225.167 90.7474 224.199 82.5929 220.615 93.2493C224.184 91.8724 248.951 97.1344 245.479 89.0133C245.397 84.6997 247.329 82.0098 245.56 81.5819C241.299 80.2182 237.449 68.4005 236.434 60.1089C236.627 52.4741 217.459 72.8417 217.323 73.1188Z" fill="#F9BDA3"/>
<mask id="mask22_0_458" style="mask-type:luminance" maskUnits="userSpaceOnUse" x="217" y="58" width="30" height="36">
<path fill-rule="evenodd" clip-rule="evenodd" d="M217.323 73.1188C225.167 90.7473 224.199 82.5928 220.615 93.2492C224.184 91.8724 248.951 97.1343 245.478 89.0132C245.397 84.6997 247.328 82.0097 245.56 81.5818C241.299 80.2181 237.449 68.4004 236.434 60.1088C236.626 52.4741 217.459 72.8417 217.323 73.1188Z" fill="white"/>
</mask>
<g mask="url(#mask22_0_458)">
<path d="M230.081 68.3047C226.667 90.9697 201.724 85.2984 202.685 66.477C204.983 53.0285 229.864 54.8616 230.081 68.3047Z" fill="#EB8176"/>
</g>
<path d="M199.569 140.526C225.372 187.93 261.783 145.704 266.722 181.323C266.722 181.323 274.601 96.2416 262.575 86.6587C262.575 86.6587 255.964 82.1596 243.858 80.4884C243.858 80.4884 229.334 94.4852 220.995 81.2811C220.995 81.2811 202.029 80.1953 197.077 82.4104C192.126 84.6256 190.366 93.6165 190.366 93.6165L204.021 108.554L199.569 140.526Z" fill="#9B5431"/>
<mask id="mask23_0_458" style="mask-type:luminance" maskUnits="userSpaceOnUse" x="190" y="80" width="80" height="102">
<path fill-rule="evenodd" clip-rule="evenodd" d="M199.569 140.526C225.372 187.93 261.783 145.704 266.722 181.323C266.722 181.323 274.601 96.2416 262.575 86.6587C262.575 86.6587 255.964 82.1596 243.858 80.4884C243.858 80.4884 229.334 94.4852 220.995 81.2811C220.995 81.2811 202.029 80.1953 197.077 82.4104C192.126 84.6256 190.366 93.6165 190.366 93.6165L204.021 108.554L199.569 140.526Z" fill="white"/>
</mask>
<g mask="url(#mask23_0_458)">
<path d="M246.232 111.599C235.849 108.504 248.082 129.99 246.705 137.135C242.285 160.071 223.415 167.906 203.216 150.857C176.725 128.497 212.806 193.342 212.806 193.342L276.044 203.202L290.514 126.641L263.335 101.526" fill="#6D3417"/>
<path d="M191.113 88.2437C199.131 96.1255 215.166 103.78 215.166 103.78L204.295 112.976L182.651 99.7738L185.269 90.9615" fill="#2B71A6"/>
<path d="M224.523 105.501L213.774 128.424L239 126.271L224.523 105.501Z" fill="#F7F0F0"/>
<path d="M225.016 112.101C224.733 124.068 206.875 124.351 206.29 112.1C206.573 100.134 224.432 99.8511 225.016 112.101Z" fill="#9B5431"/>
<rect x="228.749" y="103.641" width="13.62" height="13.62" fill="#EA7379"/>
</g>
<path d="M163.193 81.2811C160.334 87.1561 176.342 95.014 178.472 97.7862C178.472 97.7862 174.399 84.2347 163.193 81.2811Z" fill="#F7F0F0"/>
<path d="M154.882 85.1902C159.942 83.1103 158.98 83.1207 163.098 85.6994C169.845 88.7964 173.085 95.4144 179.754 95.5688C181.316 96.0972 215.237 88.0531 221.136 89.0129C224.421 90.1535 195.801 106.233 197.91 103.65C165.244 99.957 167.773 97.5221 154.882 85.1902Z" fill="#F7F0F0"/>
<path d="M153.898 85.1902L152.16 82.4104C154.175 81.0265 170.198 94.9844 173.488 96.6705C177.401 98.5787 213.355 89.9336 222.691 88.5146C229.501 95.627 176.284 99.6892 165.478 102.605C166.294 106.961 155.353 86.9804 153.898 85.1902Z" fill="#77689B"/>
<path d="M162.35 188.901C153.449 190.436 124.418 182.895 131.707 200.638C136.498 202.687 157.365 201.882 162.35 202.011V188.901Z" fill="#F9BDA3"/>
<mask id="mask24_0_458" style="mask-type:luminance" maskUnits="userSpaceOnUse" x="130" y="188" width="33" height="15">
<path fill-rule="evenodd" clip-rule="evenodd" d="M162.35 188.901C153.449 190.436 124.418 182.895 131.707 200.638C136.498 202.687 157.365 201.882 162.35 202.011V188.901Z" fill="white"/>
</mask>
<g mask="url(#mask24_0_458)">
<path d="M152.853 186.252C144.156 184.349 158.289 202.02 158.289 202.02L160.463 187.464" fill="#EB8176"/>
</g>
<path d="M200.174 195.575C273.889 226.662 308.566 155.634 235.209 158.848C228.448 159.611 194.144 176.04 187.971 178.202L200.174 195.575Z" fill="#009995"/>
<mask id="mask25_0_458" style="mask-type:luminance" maskUnits="userSpaceOnUse" x="187" y="158" width="89" height="46">
<path fill-rule="evenodd" clip-rule="evenodd" d="M200.174 195.575C273.889 226.662 308.566 155.634 235.209 158.847C228.448 159.611 194.144 176.04 187.971 178.202L200.174 195.575Z" fill="white"/>
</mask>
<g mask="url(#mask25_0_458)">
<path d="M212.835 162.178C272.576 155.676 276.584 176.379 268.193 193.342C259.802 210.305 291.058 167.363 291.058 167.363L276.045 154.317" fill="#00757D"/>
<path d="M205.058 166.351C188.418 163.923 209.509 184.292 206.95 168.645C206.964 167.597 207.226 167.346 205.058 166.351Z" fill="#00757D"/>
<path d="M289.432 166.351C272.792 163.923 293.883 184.292 291.324 168.645C291.337 167.597 291.6 167.346 289.432 166.351Z" fill="#00757D"/>
<path d="M241.478 159.833C224.838 157.405 245.929 177.774 243.37 162.127C243.384 161.079 243.646 160.828 241.478 159.833Z" fill="#00757D"/>
<path d="M229.124 184.651C212.484 182.224 233.575 202.592 231.016 186.945C231.03 185.897 231.292 185.646 229.124 184.651Z" fill="#00757D"/>
<path d="M262.814 187.211C246.174 184.784 267.265 205.152 264.706 189.505C264.72 188.457 264.982 188.206 262.814 187.211Z" fill="#00757D"/>
</g>
<path d="M113.704 184.664C101.273 185.26 97.5027 194.561 110.126 198.766C112.713 195.028 113.951 188.094 113.704 184.664Z" fill="#F7F0F0"/>
<path d="M137.16 188.901H148.516C147.592 186.258 127.887 185.26 113.704 184.664C113.772 187.855 113.399 193.951 110.125 198.765C120.817 202.355 139.744 202.011 139.744 202.011C139.744 202.011 134.323 192.978 137.16 188.901Z" fill="#685048"/>
<path d="M206.95 168.645C183.44 170.92 138.099 174.121 159.568 204.793C163.641 210.612 221.447 204.219 230.182 203.101" fill="#009995"/>
<mask id="mask26_0_458" style="mask-type:luminance" maskUnits="userSpaceOnUse" x="153" y="168" width="78" height="40">
<path fill-rule="evenodd" clip-rule="evenodd" d="M206.95 168.645C183.44 170.92 138.099 174.121 159.568 204.793C163.641 210.612 221.447 204.219 230.182 203.101" fill="white"/>
</mask>
<g mask="url(#mask26_0_458)">
<path d="M163.193 178.696C152.519 180.652 167.739 208.556 167.739 208.556" stroke="#00757D" stroke-width="1.93059" stroke-linecap="round" stroke-linejoin="round"/>
<path d="M166.925 178.182C153.442 188.232 182.758 187.721 169.885 178.467C169.153 177.716 169.162 177.353 166.925 178.182Z" fill="#00757D"/>
<path d="M232.104 158.211C215.464 155.784 236.555 176.152 233.996 160.505C234.01 159.457 234.273 159.206 232.104 158.211Z" fill="#00757D"/>
<path d="M181.421 160.771C164.781 158.343 185.872 178.712 183.313 163.065C183.326 162.017 183.589 161.766 181.421 160.771Z" fill="#00757D"/>
<path d="M208.787 194.357C192.147 191.93 213.238 212.298 210.679 196.651C210.693 195.603 210.955 195.352 208.787 194.357Z" fill="#00757D"/>
</g>
<path d="M152.16 82.4105C166.258 148.206 158.061 137.833 182.651 152.774C176.239 116.301 178.401 105.092 174.68 98.5956C171.787 93.5428 164.516 91.3199 152.16 82.4105Z" fill="#37566B"/>
<path d="M176.837 102.738L173.588 97.7862C177.33 99.2838 219.282 89.5946 223.566 89.0125L231.732 146.867C227.384 147.326 178.59 155.051 182.591 152.255C181.971 146.92 176.856 102.906 176.837 102.738Z" fill="#37566B"/>
<mask id="mask27_0_458" style="mask-type:luminance" maskUnits="userSpaceOnUse" x="173" y="89" width="59" height="64">
<path fill-rule="evenodd" clip-rule="evenodd" d="M176.837 102.738L173.588 97.7862C177.33 99.2838 219.282 89.5946 223.566 89.0125L231.732 146.867C227.384 147.326 178.59 155.051 182.591 152.255C181.971 146.92 176.856 102.906 176.837 102.738Z" fill="white"/>
</mask>
<g mask="url(#mask27_0_458)">
<path d="M187.008 103.78L188.238 110.639L220.642 104.731L219.273 97.2541L187.008 103.78Z" fill="#77689B"/>
<path d="M190.366 118.126L191.596 124.984L224 119.077L222.631 111.599L190.366 118.126Z" fill="#77689B"/>
<path d="M218.622 114.092C193.485 118.984 234.797 125.507 225.556 142.086C216.316 158.665 246.232 152.774 246.232 152.774L239.463 122.37" fill="#1F4454"/>
</g>
<path d="M173.588 97.7861H180.045L189.514 152.774H182.651L173.588 97.7861Z" fill="#77689B"/>
<path d="M262.218 147.914L270.447 151.726L269.297 101.557C268.527 102.1 243.432 104.455 247.749 105.552C250.52 136.246 248.224 137.432 262.218 147.914Z" fill="#F9BDA3"/>
<mask id="mask28_0_458" style="mask-type:luminance" maskUnits="userSpaceOnUse" x="247" y="101" width="24" height="51">
<path fill-rule="evenodd" clip-rule="evenodd" d="M262.218 147.914L270.447 151.726L269.298 101.557C268.528 102.1 243.432 104.455 247.749 105.552C250.52 136.246 248.224 137.432 262.218 147.914Z" fill="white"/>
</mask>
<g mask="url(#mask28_0_458)">
<path d="M247.675 114.545C241.035 119.491 268.99 115.822 271.984 124.582C274.296 116.252 276.728 107.873 267.865 108.554" fill="#EB8176"/>
</g>
<path d="M246.454 104.628C246.154 108.392 246.156 112.174 246.459 115.938C249.287 117.023 273.113 118.891 275.734 115.069C275.734 115.069 279.104 92.512 258.848 84.4684" fill="#9B5431"/>
<mask id="mask29_0_458" style="mask-type:luminance" maskUnits="userSpaceOnUse" x="246" y="84" width="30" height="34">
<path fill-rule="evenodd" clip-rule="evenodd" d="M246.454 104.629C246.155 108.392 246.156 112.174 246.459 115.938C249.287 117.023 273.113 118.891 275.734 115.069C275.734 115.069 279.104 92.512 258.848 84.4684" fill="white"/>
</mask>
<g mask="url(#mask29_0_458)">
<path d="M242.662 111.98C255.527 115.06 275.195 114.245 275.734 109.534C276.273 104.823 278.085 117.362 278.085 117.362L237.861 119.228" fill="#2B71A6"/>
</g>
<path d="M153.814 102.207C156.455 99.911 166.258 109.716 162.063 111.193C163.071 111.083 168.306 115.44 165.712 117.853C176.253 123.746 135.185 124.231 153.814 102.207Z" fill="#F9BDA3"/>
<path d="M260.728 137.706C245.524 129.443 236.552 121.208 232.858 110.986C227.263 104.857 206.995 111.662 212.679 114.494C202.498 118.88 206.775 122.293 214.42 122.678C213.507 126.78 230.512 127.388 229.466 130.818C232.778 138.346 263.521 188.534 270.409 150.088" fill="#F9BDA3"/>
<path d="M252.285 99.4739L257.174 101.655C257.413 101.784 257.691 101.82 257.955 101.757C258.209 101.685 258.426 101.518 258.561 101.291C258.794 100.85 258.714 100.135 258.198 99.9046L253.308 97.7235C253.07 97.5944 252.791 97.558 252.527 97.6213C252.273 97.6935 252.057 97.8602 251.922 98.0871C251.688 98.5287 251.768 99.2432 252.285 99.4738V99.4739Z" fill="#6D3417"/>
<path d="M148.244 152.386V157.822C148.244 158.352 148.71 158.86 149.257 158.835C149.813 158.826 150.262 158.378 150.271 157.822V152.386C150.271 151.856 149.805 151.348 149.257 151.372C148.702 151.382 148.253 151.83 148.244 152.386H148.244Z" fill="#00757D"/>
<path d="M167.603 159.049C168.241 160.026 169.229 160.721 170.364 160.993C170.628 161.059 170.907 161.023 171.145 160.89C171.378 160.755 171.546 160.533 171.614 160.272C171.683 160.012 171.645 159.736 171.509 159.504C171.375 159.276 171.158 159.109 170.903 159.038C170.696 158.992 170.494 158.927 170.298 158.845L170.54 158.947C170.263 158.827 170.002 158.674 169.762 158.491L169.967 158.649C169.729 158.464 169.515 158.25 169.331 158.011L169.489 158.216C169.442 158.154 169.396 158.09 169.353 158.026C169.215 157.801 168.999 157.636 168.747 157.56C168.484 157.49 168.203 157.526 167.966 157.662C167.734 157.798 167.565 158.02 167.497 158.28C167.429 158.54 167.467 158.817 167.603 159.049Z" fill="#00757D"/>
<path d="M237.317 180.578L243.115 180.941C243.645 180.974 244.152 180.451 244.129 179.927C244.116 179.373 243.67 178.926 243.115 178.914L237.317 178.551C236.787 178.518 236.28 179.041 236.303 179.565C236.316 180.119 236.762 180.566 237.317 180.578Z" fill="#00757D"/>
<path d="M228.568 129.052C229.434 128.479 230.168 127.726 230.719 126.845C230.855 126.613 230.893 126.336 230.824 126.076C230.756 125.816 230.587 125.594 230.355 125.458C230.119 125.321 229.838 125.285 229.574 125.356C229.322 125.433 229.107 125.598 228.968 125.822C228.86 125.996 228.743 126.165 228.618 126.328L228.776 126.123C228.461 126.529 228.096 126.894 227.69 127.209L227.895 127.05C227.781 127.138 227.664 127.222 227.545 127.302C227.32 127.44 227.155 127.655 227.079 127.907C227.009 128.171 227.045 128.452 227.181 128.688C227.317 128.92 227.539 129.089 227.799 129.157C228.059 129.226 228.336 129.188 228.568 129.052Z" fill="#EB8176"/>
<path d="M212.577 41.2651C211.014 40.2442 209.303 39.6145 207.641 39.9555C202.371 41.0368 207.037 47.8903 207.037 47.8903L212.634 46.2658L216.756 45.0697C215.669 43.8097 214.203 42.3266 212.577 41.2651Z" fill="#EA6D2F"/>
<path d="M233.883 57.6319L234.357 59.2263C234.357 59.2263 239.627 54.4772 239.813 48.9547C240.07 41.2828 223.178 37.0304 219.966 39.5367C216.754 42.0431 208.143 50.9237 208.143 50.9237" fill="#60272B"/>
<path d="M208.767 50.1306C204.814 54.5262 212.719 54.0074 207.614 58.1423C202.508 62.2772 212.225 62.921 212.225 62.921V50.6099" fill="#60272B"/>
<path d="M209.937 49.1278C209.672 65.1329 205.39 76.72 219.719 75.1691C234.048 73.6182 236.848 59.9472 235.366 52.7493C233.883 45.5514 223.672 39.9555 223.672 39.9555L209.937 49.1278Z" fill="#F9BDA3"/>
<mask id="mask30_0_458" style="mask-type:luminance" maskUnits="userSpaceOnUse" x="209" y="39" width="27" height="37">
<path fill-rule="evenodd" clip-rule="evenodd" d="M209.937 49.1278C209.672 65.1329 205.39 76.72 219.719 75.1691C234.048 73.6182 236.848 59.9472 235.366 52.7493C233.883 45.5514 223.672 39.9555 223.672 39.9555L209.937 49.1278Z" fill="white"/>
</mask>
<g mask="url(#mask30_0_458)">
<ellipse opacity="0.5" cx="208.562" cy="62.4011" rx="2.38377" ry="3.50437" transform="rotate(-73.8109 208.562 62.4011)" fill="#EB8176"/>
<path d="M235.224 60.6788C230.063 59.9717 231.742 53.8166 231.742 53.8166L228.599 51.8671C228.599 51.8671 213.109 57.1432 214.669 51.2144C214.669 51.2144 208.762 54.5631 206.511 53.2423C204.26 51.9215 215.131 46.0065 215.131 46.0065L233.593 48.6777C233.593 48.6777 237.07 52.4654 237.218 52.6286" fill="#EB8176"/>
</g>
<path d="M234.46 60.029C231.166 59.6664 230.754 56.087 233.636 54.5315L231.331 48.9547C231.331 48.9547 241.46 47.4026 229.931 50.9236C218.402 54.4447 211.814 54.0713 216.425 48.9547C202.343 57.5451 201.19 44.0612 211.319 45.7446C205.802 40.656 222.931 36.9845 230.095 40.656C237.26 44.3276 239.154 50.5284 239.154 50.5284L234.46 60.029Z" fill="#60272B"/>
<mask id="mask31_0_458" style="mask-type:luminance" maskUnits="userSpaceOnUse" x="204" y="39" width="36" height="22">
<path fill-rule="evenodd" clip-rule="evenodd" d="M234.46 60.029C231.166 59.6664 230.754 56.087 233.636 54.5315L231.331 48.9547C231.331 48.9547 241.46 47.4026 229.931 50.9236C218.402 54.4447 211.814 54.0713 216.425 48.9547C202.343 57.5451 201.19 44.0612 211.319 45.7446C205.802 40.656 222.931 36.9845 230.095 40.656C237.26 44.3276 239.154 50.5284 239.154 50.5284L234.46 60.029Z" fill="white"/>
</mask>
<g mask="url(#mask31_0_458)">
<path d="M230.205 51.4369C215.789 52.139 206.29 39.6287 212.248 40.3902C215.975 40.8433 219.743 40.8616 223.475 40.4446L230.205 49.599" fill="#4A222B"/>
</g>
<path d="M219.254 57.3671C219.126 60.9383 223.402 61.0433 223.835 57.5752C223.973 53.8272 219.654 54.0325 219.254 57.3671Z" fill="white"/>
<mask id="mask32_0_458" style="mask-type:luminance" maskUnits="userSpaceOnUse" x="219" y="54" width="5" height="7">
<path fill-rule="evenodd" clip-rule="evenodd" d="M219.254 57.367C219.126 60.9382 223.401 61.0433 223.835 57.5751C223.973 53.8272 219.654 54.0324 219.254 57.367Z" fill="white"/>
</mask>
<g mask="url(#mask32_0_458)">
<path d="M219.45 57.4009C219.598 59.1257 221.767 59.1885 221.779 57.2432C221.627 55.4791 219.46 55.4979 219.45 57.4009Z" fill="#373947"/>
</g>
<path d="M210.371 57.4596C210.261 60.699 213.765 60.7842 214.123 57.6515C214.241 54.2673 210.705 54.4362 210.371 57.4596Z" fill="white"/>
<mask id="mask33_0_458" style="mask-type:luminance" maskUnits="userSpaceOnUse" x="210" y="55" width="5" height="5">
<path fill-rule="evenodd" clip-rule="evenodd" d="M210.371 57.4595C210.261 60.6989 213.765 60.7842 214.123 57.6514C214.241 54.2673 210.705 54.4362 210.371 57.4595Z" fill="white"/>
</mask>
<g mask="url(#mask33_0_458)">
<path d="M210.497 57.9196C210.625 59.4835 212.404 59.5477 212.406 57.7884C212.274 56.1922 210.497 56.195 210.497 57.9196Z" fill="#373947"/>
</g>
<path d="M210.475 52.2007C214.758 51.5683 215.811 53.2016 213.034 53.7249C210.419 54.2176 207.887 52.5828 210.475 52.2007Z" fill="#373947"/>
<path d="M220.403 52.5664C225.647 51.2447 227.289 52.8815 223.884 53.8633C220.695 54.7829 217.257 53.3591 220.403 52.5664Z" fill="#373947"/>
<path d="M214.901 61.5243C215.59 60.5465 215.259 58.3902 216.162 58.5999C217.09 58.3926 216.437 60.5674 217.116 61.6033C217.806 62.6547 216.78 63.2025 215.975 63.1599C215.973 63.1598 215.972 63.1579 215.97 63.1577C215.968 63.1576 215.967 63.1595 215.965 63.1594C215.173 63.1175 214.222 62.4879 214.901 61.5243Z" fill="#E67354"/>
<path d="M213.343 65.2977C213.107 65.4904 213.003 65.8023 213.076 66.0984C213.956 69.9995 216.809 70.227 218.305 67.872C221.018 64.1023 216.692 62.9633 213.343 65.2977Z" fill="#C1525F"/>
<mask id="mask34_0_458" style="mask-type:luminance" maskUnits="userSpaceOnUse" x="213" y="64" width="7" height="6">
<path fill-rule="evenodd" clip-rule="evenodd" d="M213.343 65.2977C213.107 65.4905 213.003 65.8023 213.076 66.0985C213.956 69.9996 216.809 70.227 218.305 67.8721C221.018 64.1024 216.692 62.9633 213.343 65.2977Z" fill="white"/>
</mask>
<g mask="url(#mask34_0_458)">
<path d="M219.434 67.9292C220.64 71.3986 214.499 74.7262 214.197 69.1591C214.397 66.1882 217.97 64.7023 219.434 67.9292Z" fill="#993443"/>
<path d="M213.887 64.4533C213.598 65.4185 214.243 66.2142 215.501 66.061C216.479 65.9419 218.183 65.2056 217.818 63.8069L214.296 64.1845" fill="#F7F0F0"/>
</g>
<path d="M233.204 52.3381C228.263 53.3715 213.911 41.1795 212.577 41.2651C212.577 41.2651 209.99 39.4393 208.143 39.9555C208.143 39.9555 215.553 38.9302 218.628 40.426C221.702 41.9218 233.204 52.3381 233.204 52.3381Z" fill="#FE8742"/>
<path d="M235.719 59.6281C235.719 59.6281 225.703 42.1321 216.404 39.8005C216.404 39.8005 222.684 33.8841 228.531 35.108C234.378 36.3318 240.451 45.5628 240.78 49.0215C241.109 52.4802 235.719 59.6281 235.719 59.6281Z" fill="#8476A0"/>
<mask id="mask35_0_458" style="mask-type:luminance" maskUnits="userSpaceOnUse" x="216" y="34" width="25" height="26">
<path fill-rule="evenodd" clip-rule="evenodd" d="M235.719 59.6281C235.719 59.6281 225.703 42.132 216.404 39.8004C216.404 39.8004 222.684 33.8841 228.531 35.1079C234.378 36.3318 240.451 45.5628 240.78 49.0215C241.109 52.4801 235.719 59.6281 235.719 59.6281Z" fill="white"/>
</mask>
<g mask="url(#mask35_0_458)">
<path d="M231.742 33.5725C235.116 38.82 226.916 49.4278 226.916 49.4278L212.225 36.8312L220.51 30.437" fill="#009995"/>
<path d="M215.169 37.2984C215.637 37.3973 216.088 37.5108 216.522 37.6391C225.403 40.2517 227.274 48.5578 227.274 48.5578L218.051 43.0827" fill="#00757D"/>
<path d="M241.592 52.5302C238.134 61.6306 229.606 48.0628 228.599 49.0538C227.593 50.0449 233.204 60.7343 233.204 60.7343H242.087" fill="#6D618C"/>
</g>
<path d="M232.182 60.029C241.624 53.0576 244.26 67.7342 231.742 66.5967L232.182 60.029Z" fill="#F9BDA3"/>
<ellipse opacity="0.5" cx="224.377" cy="62.9028" rx="3.50437" ry="2.38377" transform="rotate(-16.1891 224.377 62.9028)" fill="#EB8176"/>
<path d="M236.177 61.0317C237.165 60.9501 237.998 61.883 235.98 62.9029" stroke="#BA424D" stroke-width="1.35142" stroke-linecap="round" stroke-linejoin="round"/>
</svg>
